<svg xmlns="http://www.w3.org/2000/svg" version="1.1" xmlns:xlink="http://www.w3.org/1999/xlink" xmlns:svgjs="http://svgjs.dev/svgjs" viewBox="0 0 23.17064812851766 5.251225593415775"><g transform="matrix(1,0,0,1,0.8680233719941359,0.9475682695987218)"><rect width="23.17064812851766" height="23.17064812851766" x="-0.8680233719941359" y="-9.907279537149664" fill="#000000"></rect><g><path d=" M 0.722900390625 0.93017578125 Q 0.722900390625 0.90966796875 0.6859130859375 0.892822265625 Q 0.64892578125 0.8759765625 0.57275390625 0.8759765625 Q 0.52001953125 0.8759765625 0.4892578125 0.88330078125 Q 0.45849609375 0.890625 0.4427490234375 0.9027099609375 Q 0.427001953125 0.914794921875 0.422607421875 0.9298095703125 Q 0.418212890625 0.94482421875 0.418212890625 0.960205078125 Q 0.418212890625 0.99169921875 0.4478759765625 1.0155029296875 Q 0.4775390625 1.039306640625 0.5262451171875 1.060546875 Q 0.574951171875 1.081787109375 0.63720703125 1.10302734375 Q 0.699462890625 1.124267578125 0.7646484375 1.1502685546875 Q 0.829833984375 1.17626953125 0.89208984375 1.2099609375 Q 0.954345703125 1.24365234375 1.0030517578125 1.2890625 Q 1.0517578125 1.33447265625 1.0814208984375 1.395263671875 Q 1.111083984375 1.4560546875 1.111083984375 1.535888671875 Q 1.111083984375 1.638427734375 1.071533203125 1.7080078125 Q 1.031982421875 1.777587890625 0.9613037109375 1.820068359375 Q 0.890625 1.862548828125 0.7935791015625 1.880859375 Q 0.696533203125 1.899169921875 0.58154296875 1.899169921875 Q 0.51416015625 1.899169921875 0.447509765625 1.888916015625 Q 0.380859375 1.878662109375 0.32080078125 1.8592529296875 Q 0.2607421875 1.83984375 0.2091064453125 1.8116455078125 Q 0.157470703125 1.783447265625 0.1197509765625 1.7479248046875 Q 0.08203125 1.71240234375 0.0604248046875 1.6695556640625 Q 0.038818359375 1.626708984375 0.038818359375 1.57763671875 Q 0.038818359375 1.540283203125 0.050537109375 1.512451171875 Q 0.062255859375 1.484619140625 0.0816650390625 1.4666748046875 Q 0.10107421875 1.44873046875 0.1259765625 1.43994140625 Q 0.15087890625 1.43115234375 0.177978515625 1.43115234375 Q 0.2109375 1.43115234375 0.243896484375 1.443603515625 Q 0.27685546875 1.4560546875 0.30322265625 1.480224609375 Q 0.32958984375 1.50439453125 0.3460693359375 1.53955078125 Q 0.362548828125 1.57470703125 0.362548828125 1.6201171875 Q 0.362548828125 1.631103515625 0.3731689453125 1.6435546875 Q 0.3837890625 1.656005859375 0.4039306640625 1.6666259765625 Q 0.424072265625 1.67724609375 0.4541015625 1.6845703125 Q 0.484130859375 1.69189453125 0.52294921875 1.69189453125 Q 0.5771484375 1.69189453125 0.609375 1.6849365234375 Q 0.6416015625 1.677978515625 0.6588134765625 1.666259765625 Q 0.676025390625 1.654541015625 0.68115234375 1.639892578125 Q 0.686279296875 1.625244140625 0.686279296875 1.610595703125 Q 0.686279296875 1.59228515625 0.6591796875 1.578369140625 Q 0.632080078125 1.564453125 0.588134765625 1.5501708984375 Q 0.544189453125 1.535888671875 0.4874267578125 1.519775390625 Q 0.4306640625 1.503662109375 0.3720703125 1.4813232421875 Q 0.3134765625 1.458984375 0.2567138671875 1.42822265625 Q 0.199951171875 1.3974609375 0.156005859375 1.3538818359375 Q 0.112060546875 1.310302734375 0.0849609375 1.2520751953125 Q 0.057861328125 1.19384765625 0.057861328125 1.1162109375 Q 0.057861328125 1.039306640625 0.0765380859375 0.978515625 Q 0.09521484375 0.917724609375 0.1292724609375 0.870849609375 Q 0.163330078125 0.823974609375 0.2109375 0.7906494140625 Q 0.258544921875 0.75732421875 0.3167724609375 0.7357177734375 Q 0.375 0.714111328125 0.4420166015625 0.7042236328125 Q 0.509033203125 0.6943359375 0.58154296875 0.6943359375 Q 0.711181640625 0.6943359375 0.8023681640625 0.7203369140625 Q 0.8935546875 0.746337890625 0.95068359375 0.787353515625 Q 1.0078125 0.828369140625 1.0338134765625 0.8785400390625 Q 1.059814453125 0.9287109375 1.059814453125 0.976318359375 Q 1.059814453125 1.01953125 1.04150390625 1.051025390625 Q 1.023193359375 1.08251953125 0.993896484375 1.10302734375 Q 0.964599609375 1.12353515625 0.92724609375 1.133056640625 Q 0.889892578125 1.142578125 0.851806640625 1.142578125 Q 0.815185546875 1.142578125 0.7803955078125 1.134521484375 Q 0.74560546875 1.12646484375 0.7188720703125 1.1103515625 Q 0.692138671875 1.09423828125 0.6756591796875 1.0711669921875 Q 0.6591796875 1.048095703125 0.6591796875 1.01806640625 Q 0.6591796875 0.99609375 0.6690673828125 0.985107421875 Q 0.678955078125 0.97412109375 0.6910400390625 0.966796875 Q 0.703125 0.95947265625 0.7130126953125 0.9521484375 Q 0.722900390625 0.94482421875 0.722900390625 0.93017578125 M 1.97021484375 1.213623046875 Q 1.97021484375 1.18359375 1.962158203125 1.166748046875 Q 1.9541015625 1.14990234375 1.9420166015625 1.1414794921875 Q 1.929931640625 1.133056640625 1.916015625 1.1297607421875 Q 1.902099609375 1.12646484375 1.8900146484375 1.122802734375 Q 1.8779296875 1.119140625 1.869873046875 1.1121826171875 Q 1.86181640625 1.105224609375 1.86181640625 1.089111328125 Q 1.86181640625 1.005615234375 1.9482421875 0.9686279296875 Q 2.03466796875 0.931640625 2.197998046875 0.931640625 Q 2.2529296875 0.931640625 2.290283203125 0.94189453125 Q 2.32763671875 0.9521484375 2.3521728515625 0.970458984375 Q 2.376708984375 0.98876953125 2.3902587890625 1.014404296875 Q 2.40380859375 1.0400390625 2.4100341796875 1.0711669921875 Q 2.416259765625 1.102294921875 2.4173583984375 1.137451171875 Q 2.41845703125 1.172607421875 2.41845703125 1.210693359375 L 2.41845703125 1.603271484375 Q 2.41845703125 1.632568359375 2.4261474609375 1.648681640625 Q 2.433837890625 1.664794921875 2.4459228515625 1.6732177734375 Q 2.4580078125 1.681640625 2.4715576171875 1.6845703125 Q 2.485107421875 1.6875 2.4971923828125 1.691162109375 Q 2.50927734375 1.69482421875 2.5169677734375 1.7017822265625 Q 2.524658203125 1.708740234375 2.524658203125 1.724853515625 Q 2.524658203125 1.808349609375 2.4400634765625 1.8453369140625 Q 2.35546875 1.88232421875 2.197998046875 1.88232421875 Q 2.1591796875 1.88232421875 2.129150390625 1.87646484375 Q 2.09912109375 1.87060546875 2.0767822265625 1.861083984375 Q 2.054443359375 1.8515625 2.038330078125 1.8394775390625 Q 2.022216796875 1.827392578125 2.01123046875 1.814208984375 Q 1.985595703125 1.784912109375 1.97900390625 1.74609375 Q 1.94091796875 1.789306640625 1.888916015625 1.822998046875 Q 1.866943359375 1.837646484375 1.839111328125 1.8511962890625 Q 1.811279296875 1.86474609375 1.7783203125 1.8753662109375 Q 1.745361328125 1.885986328125 1.7069091796875 1.892578125 Q 1.66845703125 1.899169921875 1.625244140625 1.899169921875 Q 1.544677734375 1.899169921875 1.486083984375 1.8790283203125 Q 1.427490234375 1.85888671875 1.3868408203125 1.8251953125 Q 1.34619140625 1.79150390625 1.3212890625 1.746826171875 Q 1.29638671875 1.7021484375 1.282470703125 1.653076171875 Q 1.2685546875 1.60400390625 1.2637939453125 1.5538330078125 Q 1.259033203125 1.503662109375 1.259033203125 1.458251953125 L 1.259033203125 1.21728515625 Q 1.259033203125 1.1865234375 1.2509765625 1.1693115234375 Q 1.242919921875 1.152099609375 1.23046875 1.1429443359375 Q 1.218017578125 1.1337890625 1.2041015625 1.1304931640625 Q 1.190185546875 1.127197265625 1.177734375 1.1231689453125 Q 1.165283203125 1.119140625 1.1572265625 1.1121826171875 Q 1.149169921875 1.105224609375 1.149169921875 1.089111328125 Q 1.149169921875 1.005615234375 1.235595703125 0.9686279296875 Q 1.322021484375 0.931640625 1.4853515625 0.931640625 Q 1.557861328125 0.931640625 1.60107421875 0.94921875 Q 1.644287109375 0.966796875 1.6669921875 0.9971923828125 Q 1.689697265625 1.027587890625 1.6962890625 1.0693359375 Q 1.702880859375 1.111083984375 1.702880859375 1.159423828125 L 1.702880859375 1.521240234375 Q 1.702880859375 1.566650390625 1.7098388671875 1.6021728515625 Q 1.716796875 1.6376953125 1.7332763671875 1.66259765625 Q 1.749755859375 1.6875 1.77685546875 1.7003173828125 Q 1.803955078125 1.713134765625 1.84423828125 1.713134765625 Q 1.869873046875 1.713134765625 1.892578125 1.705078125 Q 1.915283203125 1.697021484375 1.93212890625 1.682373046875 Q 1.948974609375 1.667724609375 1.9588623046875 1.6475830078125 Q 1.96875 1.62744140625 1.96875 1.603271484375 L 1.97021484375 1.213623046875 M 3.76171875 1.411376953125 Q 3.76171875 1.4677734375 3.7547607421875 1.525634765625 Q 3.747802734375 1.58349609375 3.73095703125 1.6376953125 Q 3.714111328125 1.69189453125 3.686279296875 1.739501953125 Q 3.658447265625 1.787109375 3.6170654296875 1.8226318359375 Q 3.57568359375 1.858154296875 3.5189208984375 1.878662109375 Q 3.462158203125 1.899169921875 3.38818359375 1.899169921875 Q 3.3046875 1.899169921875 3.2442626953125 1.881591796875 Q 3.183837890625 1.864013671875 3.141357421875 1.839111328125 L 3.141357421875 2.009765625 Q 3.141357421875 2.04052734375 3.1494140625 2.0570068359375 Q 3.157470703125 2.073486328125 3.169189453125 2.0819091796875 Q 3.180908203125 2.09033203125 3.1951904296875 2.0936279296875 Q 3.20947265625 2.096923828125 3.22119140625 2.1005859375 Q 3.23291015625 2.104248046875 3.240966796875 2.1112060546875 Q 3.2490234375 2.1181640625 3.2490234375 2.13427734375 Q 3.2490234375 2.2177734375 3.16259765625 2.2547607421875 Q 3.076171875 2.291748046875 2.912841796875 2.291748046875 Q 2.83447265625 2.291748046875 2.773681640625 2.282958984375 Q 2.712890625 2.274169921875 2.671142578125 2.2547607421875 Q 2.62939453125 2.2353515625 2.6077880859375 2.2056884765625 Q 2.586181640625 2.176025390625 2.586181640625 2.13427734375 Q 2.586181640625 2.1181640625 2.5938720703125 2.1112060546875 Q 2.6015625 2.104248046875 2.6136474609375 2.1005859375 Q 2.625732421875 2.096923828125 2.6392822265625 2.093994140625 Q 2.65283203125 2.091064453125 2.6649169921875 2.0826416015625 Q 2.677001953125 2.07421875 2.6846923828125 2.0584716796875 Q 2.6923828125 2.042724609375 2.6923828125 2.0126953125 L 2.6923828125 1.210693359375 Q 2.6923828125 1.181396484375 2.6846923828125 1.165283203125 Q 2.677001953125 1.149169921875 2.6649169921875 1.1407470703125 Q 2.65283203125 1.13232421875 2.6392822265625 1.12939453125 Q 2.625732421875 1.12646484375 2.6136474609375 1.122802734375 Q 2.6015625 1.119140625 2.5938720703125 1.1121826171875 Q 2.586181640625 1.105224609375 2.586181640625 1.089111328125 Q 2.586181640625 1.04736328125 2.6077880859375 1.0177001953125 Q 2.62939453125 0.988037109375 2.671142578125 0.9686279296875 Q 2.712890625 0.94921875 2.773681640625 0.9404296875 Q 2.83447265625 0.931640625 2.912841796875 0.931640625 Q 2.99853515625 0.931640625 3.0450439453125 0.944091796875 Q 3.091552734375 0.95654296875 3.11279296875 0.988037109375 Q 3.13330078125 0.97265625 3.15966796875 0.958740234375 Q 3.18603515625 0.94482421875 3.2193603515625 0.9342041015625 Q 3.252685546875 0.923583984375 3.2933349609375 0.9169921875 Q 3.333984375 0.910400390625 3.3837890625 0.910400390625 Q 3.457763671875 0.910400390625 3.514892578125 0.931640625 Q 3.572021484375 0.952880859375 3.6141357421875 0.9891357421875 Q 3.65625 1.025390625 3.6844482421875 1.074462890625 Q 3.712646484375 1.12353515625 3.7298583984375 1.17919921875 Q 3.7470703125 1.23486328125 3.75439453125 1.294189453125 Q 3.76171875 1.353515625 3.76171875 1.411376953125 M 3.141357421875 1.693359375 Q 3.15673828125 1.69921875 3.1728515625 1.7021484375 Q 3.18896484375 1.705078125 3.205810546875 1.705078125 Q 3.246826171875 1.705078125 3.268798828125 1.6922607421875 Q 3.290771484375 1.679443359375 3.301025390625 1.646484375 Q 3.311279296875 1.613525390625 3.3131103515625 1.55712890625 Q 3.31494140625 1.500732421875 3.31494140625 1.414306640625 Q 3.31494140625 1.323486328125 3.308349609375 1.2623291015625 Q 3.3017578125 1.201171875 3.287109375 1.1649169921875 Q 3.2724609375 1.128662109375 3.2490234375 1.11328125 Q 3.2255859375 1.097900390625 3.19189453125 1.097900390625 Q 3.1787109375 1.097900390625 3.16552734375 1.10009765625 Q 3.15234375 1.102294921875 3.141357421875 1.106689453125 Q 3.142822265625 1.12939453125 3.142822265625 1.155029296875 Q 3.142822265625 1.1806640625 3.142822265625 1.210693359375 L 3.141357421875 1.693359375 M 4.387939453125 1.097900390625 Q 4.364501953125 1.097900390625 4.343994140625 1.1085205078125 Q 4.323486328125 1.119140625 4.3084716796875 1.14111328125 Q 4.29345703125 1.1630859375 4.2850341796875 1.1971435546875 Q 4.276611328125 1.231201171875 4.276611328125 1.278076171875 L 4.51025390625 1.278076171875 Q 4.51025390625 1.226806640625 4.502197265625 1.1920166015625 Q 4.494140625 1.1572265625 4.478759765625 1.1363525390625 Q 4.46337890625 1.115478515625 4.4403076171875 1.106689453125 Q 4.417236328125 1.097900390625 4.387939453125 1.097900390625 M 4.333740234375 0.910400390625 Q 4.431884765625 0.910400390625 4.5106201171875 0.939697265625 Q 4.58935546875 0.968994140625 4.6446533203125 1.020263671875 Q 4.699951171875 1.071533203125 4.7296142578125 1.1407470703125 Q 4.75927734375 1.2099609375 4.75927734375 1.289794921875 Q 4.75927734375 1.32275390625 4.7501220703125 1.341064453125 Q 4.740966796875 1.359375 4.72412109375 1.3681640625 Q 4.707275390625 1.376953125 4.682373046875 1.379150390625 Q 4.657470703125 1.38134765625 4.6259765625 1.38134765625 L 4.273681640625 1.38134765625 Q 4.273681640625 1.4619140625 4.2901611328125 1.5120849609375 Q 4.306640625 1.562255859375 4.3359375 1.590087890625 Q 4.365234375 1.617919921875 4.40625 1.6278076171875 Q 4.447265625 1.6376953125 4.4970703125 1.6376953125 Q 4.5234375 1.6376953125 4.5516357421875 1.632568359375 Q 4.579833984375 1.62744140625 4.6058349609375 1.619384765625 Q 4.6318359375 1.611328125 4.65380859375 1.6025390625 Q 4.67578125 1.59375 4.6904296875 1.585693359375 Q 4.7021484375 1.5791015625 4.713134765625 1.5791015625 Q 4.72998046875 1.5791015625 4.739501953125 1.5933837890625 Q 4.7490234375 1.607666015625 4.7490234375 1.625244140625 Q 4.7490234375 1.631103515625 4.748291015625 1.63623046875 Q 4.74755859375 1.641357421875 4.745361328125 1.646484375 Q 4.72412109375 1.70068359375 4.6875 1.746826171875 Q 4.65087890625 1.79296875 4.5985107421875 1.8270263671875 Q 4.546142578125 1.861083984375 4.477294921875 1.880126953125 Q 4.408447265625 1.899169921875 4.32275390625 1.899169921875 Q 4.24072265625 1.899169921875 4.1729736328125 1.8797607421875 Q 4.105224609375 1.8603515625 4.0506591796875 1.8255615234375 Q 3.99609375 1.790771484375 3.955078125 1.743896484375 Q 3.9140625 1.697021484375 3.886962890625 1.6417236328125 Q 3.85986328125 1.58642578125 3.8463134765625 1.5260009765625 Q 3.832763671875 1.465576171875 3.832763671875 1.404052734375 Q 3.832763671875 1.341796875 3.8466796875 1.2806396484375 Q 3.860595703125 1.219482421875 3.888427734375 1.16455078125 Q 3.916259765625 1.109619140625 3.9580078125 1.0631103515625 Q 3.999755859375 1.0166015625 4.055419921875 0.9825439453125 Q 4.111083984375 0.948486328125 4.1806640625 0.929443359375 Q 4.250244140625 0.910400390625 4.333740234375 0.910400390625 M 5.35693359375 1.598876953125 Q 5.35693359375 1.62890625 5.364990234375 1.645751953125 Q 5.373046875 1.66259765625 5.3851318359375 1.6710205078125 Q 5.397216796875 1.679443359375 5.4111328125 1.6827392578125 Q 5.425048828125 1.68603515625 5.4371337890625 1.689697265625 Q 5.44921875 1.693359375 5.457275390625 1.7003173828125 Q 5.46533203125 1.707275390625 5.46533203125 1.723388671875 Q 5.46533203125 1.806884765625 5.37890625 1.8438720703125 Q 5.29248046875 1.880859375 5.129150390625 1.880859375 Q 5.050048828125 1.880859375 4.9892578125 1.8720703125 Q 4.928466796875 1.86328125 4.88671875 1.8438720703125 Q 4.844970703125 1.824462890625 4.8233642578125 1.7947998046875 Q 4.8017578125 1.76513671875 4.8017578125 1.723388671875 Q 4.8017578125 1.707275390625 4.809814453125 1.7003173828125 Q 4.81787109375 1.693359375 4.82958984375 1.689697265625 Q 4.84130859375 1.68603515625 4.855224609375 1.68310546875 Q 4.869140625 1.68017578125 4.880859375 1.6717529296875 Q 4.892578125 1.663330078125 4.900634765625 1.6475830078125 Q 4.90869140625 1.6318359375 4.90869140625 1.601806640625 L 4.90869140625 1.210693359375 Q 4.90869140625 1.181396484375 4.900634765625 1.165283203125 Q 4.892578125 1.149169921875 4.880859375 1.1407470703125 Q 4.869140625 1.13232421875 4.855224609375 1.12939453125 Q 4.84130859375 1.12646484375 4.82958984375 1.122802734375 Q 4.81787109375 1.119140625 4.809814453125 1.1121826171875 Q 4.8017578125 1.105224609375 4.8017578125 1.089111328125 Q 4.8017578125 1.04736328125 4.8233642578125 1.0177001953125 Q 4.844970703125 0.988037109375 4.88671875 0.9686279296875 Q 4.928466796875 0.94921875 4.9892578125 0.9404296875 Q 5.050048828125 0.931640625 5.129150390625 0.931640625 Q 5.20166015625 0.931640625 5.2452392578125 0.9459228515625 Q 5.288818359375 0.960205078125 5.313720703125 0.988037109375 Q 5.334228515625 0.974853515625 5.356201171875 0.9627685546875 Q 5.378173828125 0.95068359375 5.403076171875 0.9415283203125 Q 5.427978515625 0.932373046875 5.457275390625 0.92724609375 Q 5.486572265625 0.922119140625 5.521728515625 0.922119140625 Q 5.565673828125 0.922119140625 5.6063232421875 0.9312744140625 Q 5.64697265625 0.9404296875 5.678466796875 0.9613037109375 Q 5.7099609375 0.982177734375 5.7286376953125 1.0155029296875 Q 5.747314453125 1.048828125 5.747314453125 1.097900390625 Q 5.747314453125 1.130126953125 5.736328125 1.160888671875 Q 5.725341796875 1.191650390625 5.7037353515625 1.2154541015625 Q 5.68212890625 1.2392578125 5.6495361328125 1.25390625 Q 5.616943359375 1.2685546875 5.574462890625 1.2685546875 Q 5.531982421875 1.2685546875 5.5078125 1.256103515625 Q 5.483642578125 1.24365234375 5.470458984375 1.225341796875 Q 5.457275390625 1.20703125 5.4510498046875 1.1854248046875 Q 5.44482421875 1.163818359375 5.4378662109375 1.1455078125 Q 5.430908203125 1.127197265625 5.4195556640625 1.11474609375 Q 5.408203125 1.102294921875 5.385498046875 1.102294921875 Q 5.36279296875 1.102294921875 5.35546875 1.1077880859375 Q 5.34814453125 1.11328125 5.34814453125 1.12353515625 Q 5.34814453125 1.13671875 5.353271484375 1.1572265625 Q 5.3583984375 1.177734375 5.3583984375 1.20703125 L 5.35693359375 1.598876953125 M 6.77783203125 1.6171875 Q 6.77783203125 1.65087890625 6.7862548828125 1.67138671875 Q 6.794677734375 1.69189453125 6.8074951171875 1.7032470703125 Q 6.8203125 1.714599609375 6.835693359375 1.7186279296875 Q 6.85107421875 1.72265625 6.8642578125 1.72265625 Q 6.86572265625 1.72265625 6.867919921875 1.7222900390625 Q 6.8701171875 1.721923828125 6.8770751953125 1.7215576171875 Q 6.884033203125 1.72119140625 6.8975830078125 1.7197265625 Q 6.9111328125 1.71826171875 6.935302734375 1.716064453125 L 6.96533203125 1.588623046875 Q 6.977783203125 1.546875 6.995361328125 1.5179443359375 Q 7.012939453125 1.489013671875 7.0338134765625 1.4710693359375 Q 7.0546875 1.453125 7.0777587890625 1.445068359375 Q 7.100830078125 1.43701171875 7.124267578125 1.43701171875 Q 7.152099609375 1.43701171875 7.175537109375 1.4461669921875 Q 7.198974609375 1.455322265625 7.2158203125 1.4725341796875 Q 7.232666015625 1.48974609375 7.2421875 1.5146484375 Q 7.251708984375 1.53955078125 7.251708984375 1.5703125 Q 7.251708984375 1.600341796875 7.245849609375 1.635498046875 Q 7.239990234375 1.670654296875 7.2275390625 1.705078125 Q 7.215087890625 1.739501953125 7.19677734375 1.7713623046875 Q 7.178466796875 1.80322265625 7.1539306640625 1.827392578125 Q 7.12939453125 1.8515625 7.0982666015625 1.8662109375 Q 7.067138671875 1.880859375 7.02978515625 1.880859375 L 6.52880859375 1.880859375 Q 6.4423828125 1.880859375 6.3753662109375 1.8709716796875 Q 6.308349609375 1.861083984375 6.2625732421875 1.8402099609375 Q 6.216796875 1.8193359375 6.1929931640625 1.786376953125 Q 6.169189453125 1.75341796875 6.169189453125 1.7080078125 Q 6.169189453125 1.6904296875 6.177978515625 1.6827392578125 Q 6.186767578125 1.675048828125 6.1995849609375 1.6710205078125 Q 6.21240234375 1.6669921875 6.2274169921875 1.663330078125 Q 6.242431640625 1.65966796875 6.2552490234375 1.6505126953125 Q 6.26806640625 1.641357421875 6.27685546875 1.623779296875 Q 6.28564453125 1.606201171875 6.28564453125 1.5732421875 L 6.28564453125 1.02099609375 Q 6.28564453125 0.98876953125 6.27685546875 0.9708251953125 Q 6.26806640625 0.952880859375 6.2552490234375 0.9437255859375 Q 6.242431640625 0.9345703125 6.2274169921875 0.930908203125 Q 6.21240234375 0.92724609375 6.1995849609375 0.9232177734375 Q 6.186767578125 0.919189453125 6.177978515625 0.9114990234375 Q 6.169189453125 0.90380859375 6.169189453125 0.88623046875 Q 6.169189453125 0.8408203125 6.1929931640625 0.8082275390625 Q 6.216796875 0.775634765625 6.2625732421875 0.7547607421875 Q 6.308349609375 0.73388671875 6.3753662109375 0.7239990234375 Q 6.4423828125 0.714111328125 6.52880859375 0.714111328125 Q 6.6181640625 0.714111328125 6.68701171875 0.7239990234375 Q 6.755859375 0.73388671875 6.8023681640625 0.7547607421875 Q 6.848876953125 0.775634765625 6.8726806640625 0.8082275390625 Q 6.896484375 0.8408203125 6.896484375 0.88623046875 Q 6.896484375 0.90380859375 6.8876953125 0.9114990234375 Q 6.87890625 0.919189453125 6.8660888671875 0.9232177734375 Q 6.853271484375 0.92724609375 6.837890625 0.930908203125 Q 6.822509765625 0.9345703125 6.8096923828125 0.9437255859375 Q 6.796875 0.952880859375 6.7880859375 0.9708251953125 Q 6.779296875 0.98876953125 6.779296875 1.02099609375 L 6.77783203125 1.6171875 M 7.81494140625 1.899169921875 Q 7.727783203125 1.899169921875 7.6549072265625 1.878662109375 Q 7.58203125 1.858154296875 7.5238037109375 1.8226318359375 Q 7.465576171875 1.787109375 7.421630859375 1.73876953125 Q 7.377685546875 1.6904296875 7.348388671875 1.6343994140625 Q 7.319091796875 1.578369140625 7.304443359375 1.517578125 Q 7.289794921875 1.456787109375 7.289794921875 1.39599609375 Q 7.289794921875 1.333740234375 7.3055419921875 1.2733154296875 Q 7.3212890625 1.212890625 7.3531494140625 1.15869140625 Q 7.385009765625 1.1044921875 7.4326171875 1.05908203125 Q 7.480224609375 1.013671875 7.5443115234375 0.980712890625 Q 7.6083984375 0.94775390625 7.6885986328125 0.9290771484375 Q 7.768798828125 0.910400390625 7.865478515625 0.910400390625 Q 7.950439453125 0.910400390625 8.0211181640625 0.929443359375 Q 8.091796875 0.948486328125 8.14892578125 0.9818115234375 Q 8.2060546875 1.01513671875 8.2489013671875 1.060546875 Q 8.291748046875 1.10595703125 8.3203125 1.159423828125 Q 8.348876953125 1.212890625 8.3631591796875 1.272216796875 Q 8.37744140625 1.33154296875 8.37744140625 1.3916015625 Q 8.37744140625 1.453857421875 8.362060546875 1.51611328125 Q 8.3466796875 1.578369140625 8.3155517578125 1.634765625 Q 8.284423828125 1.691162109375 8.237548828125 1.739501953125 Q 8.190673828125 1.787841796875 8.1280517578125 1.8233642578125 Q 8.0654296875 1.85888671875 7.987060546875 1.8790283203125 Q 7.90869140625 1.899169921875 7.81494140625 1.899169921875 M 7.847900390625 1.711669921875 Q 7.8720703125 1.711669921875 7.8885498046875 1.6973876953125 Q 7.905029296875 1.68310546875 7.915283203125 1.656005859375 Q 7.925537109375 1.62890625 7.929931640625 1.5904541015625 Q 7.934326171875 1.552001953125 7.934326171875 1.50439453125 Q 7.934326171875 1.462646484375 7.93359375 1.4161376953125 Q 7.932861328125 1.36962890625 7.929931640625 1.3245849609375 Q 7.927001953125 1.279541015625 7.92041015625 1.238525390625 Q 7.913818359375 1.197509765625 7.9017333984375 1.166015625 Q 7.8896484375 1.134521484375 7.871337890625 1.1162109375 Q 7.85302734375 1.097900390625 7.82666015625 1.097900390625 Q 7.801025390625 1.097900390625 7.7830810546875 1.1121826171875 Q 7.76513671875 1.12646484375 7.75341796875 1.152099609375 Q 7.74169921875 1.177734375 7.7362060546875 1.213623046875 Q 7.730712890625 1.24951171875 7.730712890625 1.292724609375 Q 7.730712890625 1.3330078125 7.732177734375 1.3798828125 Q 7.733642578125 1.4267578125 7.738037109375 1.4732666015625 Q 7.742431640625 1.519775390625 7.7508544921875 1.56298828125 Q 7.75927734375 1.606201171875 7.7720947265625 1.63916015625 Q 7.784912109375 1.672119140625 7.8035888671875 1.69189453125 Q 7.822265625 1.711669921875 7.847900390625 1.711669921875 M 9.013916015625 0.910400390625 Q 9.09814453125 0.910400390625 9.1640625 0.92724609375 Q 9.22998046875 0.944091796875 9.2783203125 0.974853515625 Q 9.298828125 0.961669921875 9.3240966796875 0.949951171875 Q 9.349365234375 0.938232421875 9.3768310546875 0.929443359375 Q 9.404296875 0.920654296875 9.432861328125 0.91552734375 Q 9.46142578125 0.910400390625 9.488525390625 0.910400390625 Q 9.5185546875 0.910400390625 9.5452880859375 0.9173583984375 Q 9.572021484375 0.92431640625 9.591796875 0.9393310546875 Q 9.611572265625 0.954345703125 9.623291015625 0.978515625 Q 9.635009765625 1.002685546875 9.635009765625 1.037841796875 Q 9.635009765625 1.060546875 9.6273193359375 1.0821533203125 Q 9.61962890625 1.103759765625 9.604248046875 1.1209716796875 Q 9.5888671875 1.13818359375 9.5657958984375 1.1488037109375 Q 9.542724609375 1.159423828125 9.511962890625 1.159423828125 Q 9.481201171875 1.159423828125 9.4639892578125 1.150634765625 Q 9.44677734375 1.141845703125 9.437255859375 1.128662109375 Q 9.427734375 1.115478515625 9.42333984375 1.10009765625 Q 9.4189453125 1.084716796875 9.413818359375 1.071533203125 Q 9.40869140625 1.058349609375 9.4010009765625 1.049560546875 Q 9.393310546875 1.040771484375 9.377197265625 1.040771484375 Q 9.37353515625 1.040771484375 9.369140625 1.04150390625 Q 9.36474609375 1.042236328125 9.35888671875 1.043701171875 Q 9.391845703125 1.08251953125 9.407958984375 1.127197265625 Q 9.424072265625 1.171875 9.424072265625 1.218017578125 Q 9.424072265625 1.283935546875 9.3936767578125 1.3480224609375 Q 9.36328125 1.412109375 9.3035888671875 1.46337890625 Q 9.243896484375 1.5146484375 9.1556396484375 1.546142578125 Q 9.0673828125 1.57763671875 8.952392578125 1.57763671875 Q 8.893798828125 1.57763671875 8.8359375 1.56884765625 L 8.8359375 1.587158203125 Q 8.8359375 1.60546875 8.8648681640625 1.6138916015625 Q 8.893798828125 1.622314453125 8.940673828125 1.62744140625 Q 8.987548828125 1.632568359375 9.0479736328125 1.6373291015625 Q 9.1083984375 1.64208984375 9.1710205078125 1.65234375 Q 9.233642578125 1.66259765625 9.2940673828125 1.682373046875 Q 9.3544921875 1.7021484375 9.4013671875 1.7369384765625 Q 9.4482421875 1.771728515625 9.4771728515625 1.8251953125 Q 9.506103515625 1.878662109375 9.506103515625 1.95703125 Q 9.506103515625 2.020751953125 9.487060546875 2.072021484375 Q 9.468017578125 2.123291015625 9.434326171875 2.16357421875 Q 9.400634765625 2.203857421875 9.3544921875 2.233154296875 Q 9.308349609375 2.262451171875 9.254150390625 2.281494140625 Q 9.199951171875 2.300537109375 9.1395263671875 2.3096923828125 Q 9.0791015625 2.31884765625 9.017578125 2.31884765625 Q 8.952392578125 2.31884765625 8.887939453125 2.3126220703125 Q 8.823486328125 2.306396484375 8.764892578125 2.2913818359375 Q 8.706298828125 2.2763671875 8.6561279296875 2.2525634765625 Q 8.60595703125 2.228759765625 8.5689697265625 2.1932373046875 Q 8.531982421875 2.15771484375 8.5107421875 2.1097412109375 Q 8.489501953125 2.061767578125 8.489501953125 1.99951171875 Q 8.489501953125 1.95849609375 8.502685546875 1.9295654296875 Q 8.515869140625 1.900634765625 8.537109375 1.88232421875 Q 8.499755859375 1.855224609375 8.4781494140625 1.8145751953125 Q 8.45654296875 1.77392578125 8.45654296875 1.714599609375 Q 8.45654296875 1.67431640625 8.470458984375 1.64208984375 Q 8.484375 1.60986328125 8.510009765625 1.5849609375 Q 8.53564453125 1.56005859375 8.5718994140625 1.5421142578125 Q 8.608154296875 1.524169921875 8.65283203125 1.51171875 Q 8.61181640625 1.4912109375 8.5784912109375 1.46337890625 Q 8.545166015625 1.435546875 8.5213623046875 1.401123046875 Q 8.49755859375 1.36669921875 8.484375 1.3253173828125 Q 8.47119140625 1.283935546875 8.47119140625 1.235595703125 Q 8.47119140625 1.1748046875 8.504150390625 1.1165771484375 Q 8.537109375 1.058349609375 8.6041259765625 1.0125732421875 Q 8.671142578125 0.966796875 8.7733154296875 0.9385986328125 Q 8.87548828125 0.910400390625 9.013916015625 0.910400390625 M 9.136962890625 2.02001953125 Q 9.136962890625 2.0009765625 9.1197509765625 1.989990234375 Q 9.1025390625 1.97900390625 9.0728759765625 1.97314453125 Q 9.043212890625 1.96728515625 9.0032958984375 1.965087890625 Q 8.96337890625 1.962890625 8.9176025390625 1.9610595703125 Q 8.871826171875 1.959228515625 8.8231201171875 1.956298828125 Q 8.7744140625 1.953369140625 8.7275390625 1.94677734375 Q 8.728271484375 1.9658203125 8.72900390625 1.9852294921875 Q 8.729736328125 2.004638671875 8.736328125 2.0233154296875 Q 8.742919921875 2.0419921875 8.7572021484375 2.05810546875 Q 8.771484375 2.07421875 8.7989501953125 2.086669921875 Q 8.826416015625 2.09912109375 8.8685302734375 2.1060791015625 Q 8.91064453125 2.113037109375 8.9736328125 2.113037109375 Q 9.02783203125 2.113037109375 9.06005859375 2.104248046875 Q 9.09228515625 2.095458984375 9.1094970703125 2.08154296875 Q 9.126708984375 2.067626953125 9.1318359375 2.0511474609375 Q 9.136962890625 2.03466796875 9.136962890625 2.02001953125 M 8.9677734375 1.097900390625 Q 8.94140625 1.097900390625 8.9227294921875 1.1070556640625 Q 8.904052734375 1.1162109375 8.8927001953125 1.131591796875 Q 8.88134765625 1.14697265625 8.8758544921875 1.16748046875 Q 8.870361328125 1.18798828125 8.870361328125 1.210693359375 Q 8.870361328125 1.239990234375 8.87841796875 1.2696533203125 Q 8.886474609375 1.29931640625 8.9007568359375 1.323486328125 Q 8.9150390625 1.34765625 8.9344482421875 1.363037109375 Q 8.953857421875 1.37841796875 8.9765625 1.37841796875 Q 9.00146484375 1.37841796875 9.0205078125 1.3670654296875 Q 9.03955078125 1.355712890625 9.052001953125 1.3370361328125 Q 9.064453125 1.318359375 9.0706787109375 1.2945556640625 Q 9.076904296875 1.270751953125 9.076904296875 1.2451171875 Q 9.076904296875 1.218017578125 9.0699462890625 1.191650390625 Q 9.06298828125 1.165283203125 9.049072265625 1.1444091796875 Q 9.03515625 1.12353515625 9.0150146484375 1.1107177734375 Q 8.994873046875 1.097900390625 8.9677734375 1.097900390625 M 9.74853515625 0.6796875 Q 9.74853515625 0.64306640625 9.7613525390625 0.6156005859375 Q 9.774169921875 0.588134765625 9.7943115234375 0.5679931640625 Q 9.814453125 0.5478515625 9.8404541015625 0.5343017578125 Q 9.866455078125 0.520751953125 9.892822265625 0.5126953125 Q 9.919189453125 0.504638671875 9.9437255859375 0.5013427734375 Q 9.96826171875 0.498046875 9.986572265625 0.498046875 Q 10.00634765625 0.498046875 10.0316162109375 0.5013427734375 Q 10.056884765625 0.504638671875 10.083251953125 0.5126953125 Q 10.109619140625 0.520751953125 10.13525390625 0.5343017578125 Q 10.160888671875 0.5478515625 10.1810302734375 0.5679931640625 Q 10.201171875 0.588134765625 10.2132568359375 0.6156005859375 Q 10.225341796875 0.64306640625 10.225341796875 0.6796875 Q 10.225341796875 0.715576171875 10.2132568359375 0.743408203125 Q 10.201171875 0.771240234375 10.1810302734375 0.791015625 Q 10.160888671875 0.810791015625 10.13525390625 0.8243408203125 Q 10.109619140625 0.837890625 10.083251953125 0.845947265625 Q 10.056884765625 0.85400390625 10.0316162109375 0.8572998046875 Q 10.00634765625 0.860595703125 9.986572265625 0.860595703125 Q 9.96826171875 0.860595703125 9.9437255859375 0.8572998046875 Q 9.919189453125 0.85400390625 9.892822265625 0.845947265625 Q 9.866455078125 0.837890625 9.8404541015625 0.8243408203125 Q 9.814453125 0.810791015625 9.7943115234375 0.791015625 Q 9.774169921875 0.771240234375 9.7613525390625 0.7437744140625 Q 9.74853515625 0.71630859375 9.74853515625 0.6796875 M 10.20263671875 1.601806640625 Q 10.20263671875 1.631103515625 10.210693359375 1.647216796875 Q 10.21875 1.663330078125 10.2308349609375 1.6717529296875 Q 10.242919921875 1.68017578125 10.2568359375 1.68310546875 Q 10.270751953125 1.68603515625 10.2828369140625 1.689697265625 Q 10.294921875 1.693359375 10.302978515625 1.7003173828125 Q 10.31103515625 1.707275390625 10.31103515625 1.723388671875 Q 10.31103515625 1.806884765625 10.224609375 1.8438720703125 Q 10.13818359375 1.880859375 9.974853515625 1.880859375 Q 9.895751953125 1.880859375 9.8349609375 1.8720703125 Q 9.774169921875 1.86328125 9.732421875 1.8438720703125 Q 9.690673828125 1.824462890625 9.6690673828125 1.7947998046875 Q 9.6474609375 1.76513671875 9.6474609375 1.723388671875 Q 9.6474609375 1.707275390625 9.655517578125 1.7003173828125 Q 9.66357421875 1.693359375 9.67529296875 1.689697265625 Q 9.68701171875 1.68603515625 9.700927734375 1.68310546875 Q 9.71484375 1.68017578125 9.7265625 1.6717529296875 Q 9.73828125 1.663330078125 9.746337890625 1.6475830078125 Q 9.75439453125 1.6318359375 9.75439453125 1.601806640625 L 9.75439453125 1.210693359375 Q 9.75439453125 1.181396484375 9.746337890625 1.165283203125 Q 9.73828125 1.149169921875 9.7265625 1.1407470703125 Q 9.71484375 1.13232421875 9.700927734375 1.12939453125 Q 9.68701171875 1.12646484375 9.67529296875 1.122802734375 Q 9.66357421875 1.119140625 9.655517578125 1.1121826171875 Q 9.6474609375 1.105224609375 9.6474609375 1.089111328125 Q 9.6474609375 1.04736328125 9.6690673828125 1.0177001953125 Q 9.690673828125 0.988037109375 9.732421875 0.9686279296875 Q 9.774169921875 0.94921875 9.8349609375 0.9404296875 Q 9.895751953125 0.931640625 9.974853515625 0.931640625 Q 10.053955078125 0.931640625 10.099365234375 0.939697265625 Q 10.144775390625 0.94775390625 10.1678466796875 0.9671630859375 Q 10.19091796875 0.986572265625 10.19677734375 1.01953125 Q 10.20263671875 1.052490234375 10.20263671875 1.102294921875 L 10.20263671875 1.601806640625 M 11.1826171875 1.153564453125 Q 11.156982421875 1.17626953125 11.1353759765625 1.185791015625 Q 11.11376953125 1.1953125 11.095458984375 1.1953125 Q 11.07421875 1.1953125 11.05517578125 1.18505859375 Q 11.0361328125 1.1748046875 11.01708984375 1.159423828125 Q 10.998046875 1.14404296875 10.978271484375 1.12646484375 Q 10.95849609375 1.10888671875 10.93505859375 1.093505859375 Q 10.91162109375 1.078125 10.8837890625 1.06787109375 Q 10.85595703125 1.0576171875 10.821533203125 1.0576171875 Q 10.789306640625 1.0576171875 10.7691650390625 1.061279296875 Q 10.7490234375 1.06494140625 10.7373046875 1.071533203125 Q 10.7255859375 1.078125 10.7215576171875 1.087646484375 Q 10.717529296875 1.09716796875 10.717529296875 1.109619140625 Q 10.717529296875 1.1337890625 10.740966796875 1.1517333984375 Q 10.764404296875 1.169677734375 10.8028564453125 1.1865234375 Q 10.84130859375 1.203369140625 10.890380859375 1.22021484375 Q 10.939453125 1.237060546875 10.99072265625 1.2586669921875 Q 11.0419921875 1.2802734375 11.091064453125 1.3084716796875 Q 11.14013671875 1.336669921875 11.1785888671875 1.3751220703125 Q 11.217041015625 1.41357421875 11.240478515625 1.46484375 Q 11.263916015625 1.51611328125 11.263916015625 1.58349609375 Q 11.263916015625 1.666259765625 11.2261962890625 1.7259521484375 Q 11.1884765625 1.78564453125 11.126953125 1.8240966796875 Q 11.0654296875 1.862548828125 10.9866943359375 1.880859375 Q 10.907958984375 1.899169921875 10.825927734375 1.899169921875 Q 10.7431640625 1.899169921875 10.6636962890625 1.8819580078125 Q 10.584228515625 1.86474609375 10.52197265625 1.833984375 Q 10.459716796875 1.80322265625 10.421630859375 1.760009765625 Q 10.383544921875 1.716796875 10.383544921875 1.664794921875 Q 10.383544921875 1.634033203125 10.39306640625 1.6109619140625 Q 10.402587890625 1.587890625 10.4183349609375 1.5728759765625 Q 10.43408203125 1.557861328125 10.45458984375 1.550537109375 Q 10.47509765625 1.543212890625 10.4970703125 1.543212890625 Q 10.5322265625 1.543212890625 10.554931640625 1.55126953125 Q 10.57763671875 1.559326171875 10.5919189453125 1.5721435546875 Q 10.606201171875 1.5849609375 10.614990234375 1.6014404296875 Q 10.623779296875 1.617919921875 10.6318359375 1.635498046875 Q 10.639892578125 1.653076171875 10.6494140625 1.6695556640625 Q 10.658935546875 1.68603515625 10.675048828125 1.6988525390625 Q 10.691162109375 1.711669921875 10.7164306640625 1.7197265625 Q 10.74169921875 1.727783203125 10.780517578125 1.727783203125 Q 10.8427734375 1.727783203125 10.8724365234375 1.716796875 Q 10.902099609375 1.705810546875 10.902099609375 1.673583984375 Q 10.902099609375 1.661865234375 10.8804931640625 1.6505126953125 Q 10.85888671875 1.63916015625 10.82373046875 1.626708984375 Q 10.78857421875 1.6142578125 10.7431640625 1.598876953125 Q 10.69775390625 1.58349609375 10.65087890625 1.5626220703125 Q 10.60400390625 1.541748046875 10.55859375 1.5142822265625 Q 10.51318359375 1.48681640625 10.47802734375 1.4505615234375 Q 10.44287109375 1.414306640625 10.4212646484375 1.367431640625 Q 10.399658203125 1.320556640625 10.399658203125 1.26123046875 Q 10.399658203125 1.196044921875 10.415771484375 1.1444091796875 Q 10.431884765625 1.0927734375 10.4608154296875 1.0535888671875 Q 10.48974609375 1.014404296875 10.530029296875 0.9873046875 Q 10.5703125 0.960205078125 10.617919921875 0.9429931640625 Q 10.66552734375 0.92578125 10.718994140625 0.9180908203125 Q 10.7724609375 0.910400390625 10.828857421875 0.910400390625 Q 10.862548828125 0.910400390625 10.8958740234375 0.9210205078125 Q 10.92919921875 0.931640625 10.9595947265625 0.947021484375 Q 10.989990234375 0.96240234375 11.0167236328125 0.979248046875 Q 11.04345703125 0.99609375 11.06396484375 1.0078125 Q 11.04052734375 0.95361328125 11.0291748046875 0.9012451171875 Q 11.017822265625 0.848876953125 11.017822265625 0.796142578125 Q 11.017822265625 0.711181640625 11.04638671875 0.632080078125 Q 11.074951171875 0.552978515625 11.1258544921875 0.4808349609375 Q 11.1767578125 0.40869140625 11.2474365234375 0.3453369140625 Q 11.318115234375 0.281982421875 11.4019775390625 0.228515625 Q 11.48583984375 0.175048828125 11.5799560546875 0.132568359375 Q 11.674072265625 0.090087890625 11.772216796875 0.060791015625 Q 11.870361328125 0.031494140625 11.969970703125 0.0157470703125 Q 12.069580078125 0 12.1640625 0 Q 12.245361328125 0 12.3211669921875 0.0120849609375 Q 12.39697265625 0.024169921875 12.462890625 0.0501708984375 Q 12.52880859375 0.076171875 12.583740234375 0.1160888671875 Q 12.638671875 0.156005859375 12.677490234375 0.2109375 Q 12.71630859375 0.265869140625 12.7379150390625 0.3372802734375 Q 12.759521484375 0.40869140625 12.759521484375 0.49658203125 Q 12.759521484375 0.57275390625 12.7371826171875 0.639404296875 Q 12.71484375 0.7060546875 12.6734619140625 0.755126953125 Q 12.632080078125 0.80419921875 12.5731201171875 0.8323974609375 Q 12.51416015625 0.860595703125 12.44091796875 0.860595703125 Q 12.422607421875 0.860595703125 12.3980712890625 0.8583984375 Q 12.37353515625 0.856201171875 12.34716796875 0.8499755859375 Q 12.32080078125 0.84375 12.2947998046875 0.8323974609375 Q 12.268798828125 0.821044921875 12.2486572265625 0.8023681640625 Q 12.228515625 0.78369140625 12.2156982421875 0.75732421875 Q 12.202880859375 0.73095703125 12.202880859375 0.6943359375 Q 12.202880859375 0.65771484375 12.2135009765625 0.63134765625 Q 12.22412109375 0.60498046875 12.2413330078125 0.5863037109375 Q 12.258544921875 0.567626953125 12.280517578125 0.5562744140625 Q 12.302490234375 0.544921875 12.3251953125 0.5386962890625 Q 12.347900390625 0.532470703125 12.369873046875 0.5302734375 Q 12.391845703125 0.528076171875 12.409423828125 0.528076171875 Q 12.429931640625 0.528076171875 12.45263671875 0.533935546875 Q 12.475341796875 0.539794921875 12.4951171875 0.54638671875 Q 12.517822265625 0.554443359375 12.54052734375 0.56396484375 Q 12.544921875 0.561767578125 12.548583984375 0.554443359375 Q 12.551513671875 0.548583984375 12.5540771484375 0.5372314453125 Q 12.556640625 0.52587890625 12.556640625 0.5068359375 Q 12.556640625 0.46875 12.535400390625 0.4405517578125 Q 12.51416015625 0.412353515625 12.47607421875 0.3936767578125 Q 12.43798828125 0.375 12.38525390625 0.3658447265625 Q 12.33251953125 0.356689453125 12.270263671875 0.356689453125 Q 12.1962890625 0.356689453125 12.1116943359375 0.369140625 Q 12.027099609375 0.381591796875 11.9388427734375 0.40576171875 Q 11.8505859375 0.429931640625 11.7630615234375 0.4654541015625 Q 11.675537109375 0.5009765625 11.594970703125 0.5478515625 Q 11.514404296875 0.5947265625 11.4451904296875 0.65185546875 Q 11.3759765625 0.708984375 11.3250732421875 0.7763671875 Q 11.274169921875 0.84375 11.244873046875 0.9210205078125 Q 11.215576171875 0.998291015625 11.215576171875 1.084716796875 Q 11.215576171875 1.102294921875 11.208251953125 1.119873046875 Q 11.200927734375 1.137451171875 11.1826171875 1.153564453125 M 12.659912109375 1.598876953125 Q 12.659912109375 1.62890625 12.6676025390625 1.645751953125 Q 12.67529296875 1.66259765625 12.68701171875 1.6710205078125 Q 12.69873046875 1.679443359375 12.712646484375 1.6827392578125 Q 12.7265625 1.68603515625 12.73828125 1.689697265625 Q 12.75 1.693359375 12.7576904296875 1.7003173828125 Q 12.765380859375 1.707275390625 12.765380859375 1.723388671875 Q 12.765380859375 1.806884765625 12.678955078125 1.8438720703125 Q 12.592529296875 1.880859375 12.42919921875 1.880859375 Q 12.271728515625 1.880859375 12.1871337890625 1.8438720703125 Q 12.1025390625 1.806884765625 12.1025390625 1.723388671875 Q 12.1025390625 1.707275390625 12.1102294921875 1.7003173828125 Q 12.117919921875 1.693359375 12.1300048828125 1.689697265625 Q 12.14208984375 1.68603515625 12.1556396484375 1.68310546875 Q 12.169189453125 1.68017578125 12.1812744140625 1.6717529296875 Q 12.193359375 1.663330078125 12.2010498046875 1.6475830078125 Q 12.208740234375 1.6318359375 12.208740234375 1.601806640625 L 12.208740234375 1.210693359375 Q 12.208740234375 1.181396484375 12.2010498046875 1.165283203125 Q 12.193359375 1.149169921875 12.1812744140625 1.1407470703125 Q 12.169189453125 1.13232421875 12.1556396484375 1.12939453125 Q 12.14208984375 1.12646484375 12.1300048828125 1.122802734375 Q 12.117919921875 1.119140625 12.1102294921875 1.1121826171875 Q 12.1025390625 1.105224609375 12.1025390625 1.089111328125 Q 12.1025390625 1.005615234375 12.1871337890625 0.9686279296875 Q 12.271728515625 0.931640625 12.42919921875 0.931640625 Q 12.501708984375 0.931640625 12.5467529296875 0.939697265625 Q 12.591796875 0.94775390625 12.6170654296875 0.9671630859375 Q 12.642333984375 0.986572265625 12.651123046875 1.01953125 Q 12.659912109375 1.052490234375 12.659912109375 1.102294921875 L 12.659912109375 1.598876953125 M 11.845458984375 1.51611328125 Q 11.845458984375 1.540283203125 11.846923828125 1.5626220703125 Q 11.848388671875 1.5849609375 11.855712890625 1.6025390625 Q 11.863037109375 1.6201171875 11.87841796875 1.63037109375 Q 11.893798828125 1.640625 11.9208984375 1.640625 Q 11.958984375 1.640625 11.9871826171875 1.6307373046875 Q 12.015380859375 1.620849609375 12.04541015625 1.604736328125 Q 12.05712890625 1.59814453125 12.0673828125 1.59814453125 Q 12.084228515625 1.59814453125 12.0941162109375 1.61279296875 Q 12.10400390625 1.62744140625 12.10400390625 1.645751953125 Q 12.10400390625 1.658203125 12.100341796875 1.666259765625 Q 12.0791015625 1.720458984375 12.0457763671875 1.763671875 Q 12.012451171875 1.806884765625 11.9688720703125 1.8369140625 Q 11.92529296875 1.866943359375 11.873291015625 1.883056640625 Q 11.8212890625 1.899169921875 11.761962890625 1.899169921875 Q 11.679931640625 1.899169921875 11.621337890625 1.8782958984375 Q 11.562744140625 1.857421875 11.5224609375 1.8226318359375 Q 11.482177734375 1.787841796875 11.4580078125 1.7420654296875 Q 11.433837890625 1.6962890625 11.4210205078125 1.6461181640625 Q 11.408203125 1.595947265625 11.4041748046875 1.5450439453125 Q 11.400146484375 1.494140625 11.400146484375 1.44873046875 L 11.400146484375 1.078125 L 11.3642578125 1.078125 Q 11.337158203125 1.078125 11.32177734375 1.0623779296875 Q 11.306396484375 1.046630859375 11.306396484375 1.027587890625 Q 11.306396484375 1.0048828125 11.326904296875 0.989501953125 Q 11.41259765625 0.927978515625 11.483642578125 0.8704833984375 Q 11.5546875 0.81298828125 11.60595703125 0.767578125 Q 11.666015625 0.71484375 11.713623046875 0.668701171875 Q 11.732666015625 0.649658203125 11.75244140625 0.6405029296875 Q 11.772216796875 0.63134765625 11.79052734375 0.63134765625 Q 11.813232421875 0.63134765625 11.82861328125 0.646728515625 Q 11.843994140625 0.662109375 11.843994140625 0.6943359375 L 11.843994140625 0.931640625 L 12.022705078125 0.931640625 Q 12.031494140625 0.931640625 12.0435791015625 0.9327392578125 Q 12.0556640625 0.933837890625 12.066650390625 0.9404296875 Q 12.07763671875 0.947021484375 12.0853271484375 0.9613037109375 Q 12.093017578125 0.9755859375 12.093017578125 1.001953125 Q 12.093017578125 1.030517578125 12.085693359375 1.0458984375 Q 12.078369140625 1.061279296875 12.0673828125 1.068603515625 Q 12.056396484375 1.075927734375 12.0443115234375 1.0770263671875 Q 12.0322265625 1.078125 12.022705078125 1.078125 L 11.843994140625 1.078125 L 11.845458984375 1.51611328125 M 13.318359375 0.910400390625 Q 13.427490234375 0.910400390625 13.5047607421875 0.9345703125 Q 13.58203125 0.958740234375 13.6314697265625 0.999755859375 Q 13.680908203125 1.040771484375 13.70361328125 1.095703125 Q 13.726318359375 1.150634765625 13.726318359375 1.212158203125 Q 13.726318359375 1.23779296875 13.71826171875 1.257568359375 Q 13.710205078125 1.27734375 13.6966552734375 1.291259765625 Q 13.68310546875 1.30517578125 13.6640625 1.3125 Q 13.64501953125 1.31982421875 13.623046875 1.31982421875 Q 13.60400390625 1.31982421875 13.584228515625 1.313232421875 Q 13.564453125 1.306640625 13.546875 1.2919921875 Q 13.529296875 1.27734375 13.515380859375 1.25390625 Q 13.50146484375 1.23046875 13.494140625 1.19677734375 Q 13.48828125 1.172607421875 13.4765625 1.154296875 Q 13.46484375 1.135986328125 13.4498291015625 1.1231689453125 Q 13.434814453125 1.1103515625 13.4168701171875 1.1041259765625 Q 13.39892578125 1.097900390625 13.38134765625 1.097900390625 Q 13.349853515625 1.097900390625 13.3267822265625 1.111083984375 Q 13.3037109375 1.124267578125 13.288330078125 1.1495361328125 Q 13.27294921875 1.1748046875 13.265625 1.2110595703125 Q 13.25830078125 1.247314453125 13.25830078125 1.292724609375 Q 13.25830078125 1.468505859375 13.3114013671875 1.5531005859375 Q 13.364501953125 1.6376953125 13.481689453125 1.6376953125 Q 13.515380859375 1.6376953125 13.550537109375 1.6285400390625 Q 13.585693359375 1.619384765625 13.61572265625 1.6083984375 Q 13.645751953125 1.597412109375 13.667724609375 1.5882568359375 Q 13.689697265625 1.5791015625 13.69775390625 1.5791015625 Q 13.714599609375 1.5791015625 13.72412109375 1.5933837890625 Q 13.733642578125 1.607666015625 13.733642578125 1.6259765625 Q 13.733642578125 1.6318359375 13.7332763671875 1.636962890625 Q 13.73291015625 1.64208984375 13.730712890625 1.647216796875 Q 13.70947265625 1.701416015625 13.670654296875 1.7471923828125 Q 13.6318359375 1.79296875 13.5780029296875 1.8270263671875 Q 13.524169921875 1.861083984375 13.4560546875 1.880126953125 Q 13.387939453125 1.899169921875 13.30810546875 1.899169921875 Q 13.22607421875 1.899169921875 13.157958984375 1.8797607421875 Q 13.08984375 1.8603515625 13.0352783203125 1.8255615234375 Q 12.980712890625 1.790771484375 12.9400634765625 1.743896484375 Q 12.8994140625 1.697021484375 12.8719482421875 1.6417236328125 Q 12.844482421875 1.58642578125 12.8309326171875 1.5260009765625 Q 12.8173828125 1.465576171875 12.8173828125 1.404052734375 Q 12.8173828125 1.341796875 12.831298828125 1.2806396484375 Q 12.84521484375 1.219482421875 12.873046875 1.16455078125 Q 12.90087890625 1.109619140625 12.942626953125 1.0631103515625 Q 12.984375 1.0166015625 13.0400390625 0.9825439453125 Q 13.095703125 0.948486328125 13.165283203125 0.929443359375 Q 13.23486328125 0.910400390625 13.318359375 0.910400390625 M 14.354736328125 1.102294921875 Q 14.354736328125 1.08544921875 14.323974609375 1.071533203125 Q 14.293212890625 1.0576171875 14.230224609375 1.0576171875 Q 14.197998046875 1.0576171875 14.1778564453125 1.061279296875 Q 14.15771484375 1.06494140625 14.14599609375 1.071533203125 Q 14.13427734375 1.078125 14.1302490234375 1.087646484375 Q 14.126220703125 1.09716796875 14.126220703125 1.109619140625 Q 14.126220703125 1.1337890625 14.149658203125 1.1517333984375 Q 14.173095703125 1.169677734375 14.2115478515625 1.1865234375 Q 14.25 1.203369140625 14.299072265625 1.22021484375 Q 14.34814453125 1.237060546875 14.3994140625 1.2586669921875 Q 14.45068359375 1.2802734375 14.499755859375 1.3084716796875 Q 14.548828125 1.336669921875 14.5872802734375 1.3751220703125 Q 14.625732421875 1.41357421875 14.649169921875 1.46484375 Q 14.672607421875 1.51611328125 14.672607421875 1.58349609375 Q 14.672607421875 1.666259765625 14.6348876953125 1.7259521484375 Q 14.59716796875 1.78564453125 14.53564453125 1.8240966796875 Q 14.47412109375 1.862548828125 14.3953857421875 1.880859375 Q 14.316650390625 1.899169921875 14.234619140625 1.899169921875 Q 14.15185546875 1.899169921875 14.0723876953125 1.8819580078125 Q 13.992919921875 1.86474609375 13.9306640625 1.833984375 Q 13.868408203125 1.80322265625 13.830322265625 1.760009765625 Q 13.792236328125 1.716796875 13.792236328125 1.664794921875 Q 13.792236328125 1.634033203125 13.8017578125 1.6109619140625 Q 13.811279296875 1.587890625 13.8270263671875 1.5728759765625 Q 13.8427734375 1.557861328125 13.86328125 1.550537109375 Q 13.8837890625 1.543212890625 13.90576171875 1.543212890625 Q 13.94091796875 1.543212890625 13.963623046875 1.55126953125 Q 13.986328125 1.559326171875 14.0006103515625 1.5721435546875 Q 14.014892578125 1.5849609375 14.023681640625 1.6014404296875 Q 14.032470703125 1.617919921875 14.04052734375 1.635498046875 Q 14.048583984375 1.653076171875 14.05810546875 1.6695556640625 Q 14.067626953125 1.68603515625 14.083740234375 1.6988525390625 Q 14.099853515625 1.711669921875 14.1251220703125 1.7197265625 Q 14.150390625 1.727783203125 14.189208984375 1.727783203125 Q 14.25146484375 1.727783203125 14.2811279296875 1.716796875 Q 14.310791015625 1.705810546875 14.310791015625 1.673583984375 Q 14.310791015625 1.661865234375 14.2891845703125 1.6505126953125 Q 14.267578125 1.63916015625 14.232421875 1.626708984375 Q 14.197265625 1.6142578125 14.15185546875 1.598876953125 Q 14.1064453125 1.58349609375 14.0595703125 1.5626220703125 Q 14.0126953125 1.541748046875 13.96728515625 1.5142822265625 Q 13.921875 1.48681640625 13.88671875 1.4505615234375 Q 13.8515625 1.414306640625 13.8299560546875 1.367431640625 Q 13.808349609375 1.320556640625 13.808349609375 1.26123046875 Q 13.808349609375 1.196044921875 13.824462890625 1.1444091796875 Q 13.840576171875 1.0927734375 13.8695068359375 1.0535888671875 Q 13.8984375 1.014404296875 13.938720703125 0.9873046875 Q 13.97900390625 0.960205078125 14.026611328125 0.9429931640625 Q 14.07421875 0.92578125 14.127685546875 0.9180908203125 Q 14.18115234375 0.910400390625 14.237548828125 0.910400390625 Q 14.3349609375 0.910400390625 14.404541015625 0.9287109375 Q 14.47412109375 0.947021484375 14.5191650390625 0.9755859375 Q 14.564208984375 1.004150390625 14.58544921875 1.0396728515625 Q 14.606689453125 1.0751953125 14.606689453125 1.109619140625 Q 14.606689453125 1.1337890625 14.5968017578125 1.1553955078125 Q 14.5869140625 1.177001953125 14.56787109375 1.193115234375 Q 14.548828125 1.209228515625 14.521728515625 1.21875 Q 14.49462890625 1.228271484375 14.45947265625 1.228271484375 Q 14.419921875 1.228271484375 14.3946533203125 1.223876953125 Q 14.369384765625 1.219482421875 14.3543701171875 1.2117919921875 Q 14.33935546875 1.2041015625 14.33349609375 1.1934814453125 Q 14.32763671875 1.182861328125 14.32763671875 1.169677734375 Q 14.32763671875 1.156494140625 14.33203125 1.14990234375 Q 14.33642578125 1.143310546875 14.3411865234375 1.1370849609375 Q 14.345947265625 1.130859375 14.350341796875 1.12353515625 Q 14.354736328125 1.1162109375 14.354736328125 1.102294921875" fill="#fffdfa" fill-rule="nonzero"></path></g><g><path d=" M 6.580159505208333 2.9603735351562497 Q 6.580159505208333 3.014898274739583 6.60009765625 3.0610815429687497 Q 6.620035807291667 3.107264811197916 6.655029296875 3.139003092447916 Q 6.729085286458333 3.206141764322916 6.845052083333333 3.206141764322916 Q 6.961018880208333 3.206141764322916 7.04931640625 3.1178442382812497 Q 7.05908203125 3.1080786132812497 7.066609700520833 3.1080786132812497 Q 7.074137369791667 3.1080786132812497 7.080851236979167 3.113775227864583 Q 7.087565104166667 3.119471842447916 7.087565104166667 3.1276098632812497 Q 7.087565104166667 3.135747884114583 7.083089192708333 3.1459204101562497 L 7.08349609375 3.1459204101562497 Q 7.052978515625 3.1996313476562497 6.9815673828125 3.235235188802083 Q 6.91015625 3.270839029947916 6.835286458333333 3.270839029947916 Q 6.760416666666667 3.270839029947916 6.698974609375 3.251714680989583 Q 6.637532552083333 3.2325903320312497 6.590128580729167 3.1971899414062497 Q 6.542724609375 3.1617895507812497 6.5146484375 3.106654459635416 Q 6.486572265625 3.051519368489583 6.486572265625 2.982549641927083 Q 6.486572265625 2.913579915364583 6.513020833333333 2.856410319010416 Q 6.539469401041667 2.7992407226562497 6.585856119791667 2.761805826822916 Q 6.681070963541667 2.6844946289062497 6.828776041666667 2.6844946289062497 Q 6.907307942708333 2.6844946289062497 6.977294921875 2.7089086914062497 Q 7.013102213541667 2.721522623697916 7.035685221354167 2.7449194335937497 Q 7.058268229166667 2.768316243489583 7.058268229166667 2.798426920572916 Q 7.058268229166667 2.8285375976562497 7.03955078125 2.8431860351562497 Q 7.020833333333333 2.8578344726562497 6.99560546875 2.8578344726562497 Q 6.970377604166667 2.8578344726562497 6.958577473958333 2.853765462239583 Q 6.9541015625 2.790288899739583 6.921956380208333 2.759364420572916 Q 6.889811197916667 2.7284399414062497 6.825113932291667 2.7284399414062497 Q 6.71484375 2.7284399414062497 6.647501627604167 2.7925268554687497 Q 6.580159505208333 2.8566137695312497 6.580159505208333 2.9603735351562497 M 7.304443359375 3.269618326822916 Q 7.212483723958333 3.269618326822916 7.156331380208333 3.211634928385416 Q 7.100179036458333 3.153651529947916 7.100179036458333 3.064540201822916 Q 7.100179036458333 3.005132649739583 7.1298828125 2.958745930989583 Q 7.159586588541667 2.912359212239583 7.210245768229167 2.8877416992187497 Q 7.260904947916667 2.863124186197916 7.323160807291667 2.863124186197916 Q 7.412679036458333 2.863124186197916 7.470865885416667 2.9188696289062497 Q 7.529052734375 2.974615071614583 7.529052734375 3.0629125976562497 Q 7.529052734375 3.1239477539062497 7.4991455078125 3.171351725260416 Q 7.46923828125 3.218755696614583 7.418375651041667 3.2441870117187497 Q 7.367513020833333 3.269618326822916 7.304443359375 3.269618326822916 M 7.415730794270833 3.183355305989583 Q 7.44970703125 3.1422583007812497 7.44970703125 3.0738989257812497 Q 7.44970703125 3.0055395507812497 7.41064453125 2.955897623697916 Q 7.37158203125 2.906255696614583 7.310343424479167 2.906255696614583 Q 7.249104817708333 2.906255696614583 7.216145833333333 2.9481665039062497 Q 7.183186848958333 2.990077311197916 7.183186848958333 3.0580297851562497 Q 7.183186848958333 3.125982259114583 7.221842447916667 3.1752172851562497 Q 7.260498046875 3.224452311197916 7.321126302083333 3.224452311197916 Q 7.381754557291667 3.224452311197916 7.415730794270833 3.183355305989583 M 7.685709635416667 3.2594458007812497 L 7.650716145833334 3.259852701822916 Q 7.597412109375 3.259852701822916 7.584798177083334 3.2435766601562497 Q 7.5791015625 3.2362524414062497 7.5791015625 3.2258764648437497 Q 7.5791015625 3.2155004882812497 7.587239583333334 3.211431477864583 Q 7.595377604166667 3.207362467447916 7.6053466796875 3.2069555664062497 Q 7.615315755208334 3.206548665364583 7.623453776041667 3.200648600260416 Q 7.631591796875 3.1947485351562497 7.631591796875 3.181727701822916 L 7.631591796875 2.9493872070312497 Q 7.631591796875 2.925786946614583 7.602294921875 2.920904134114583 Q 7.581949869791667 2.9176489257812497 7.577677408854167 2.913783365885416 Q 7.573404947916667 2.909917805989583 7.573404947916667 2.8999487304687497 Q 7.573404947916667 2.889979654947916 7.587646484375 2.881841634114583 Q 7.611653645833334 2.867193196614583 7.6480712890625 2.867193196614583 Q 7.684488932291667 2.867193196614583 7.694864908854167 2.877569173177083 Q 7.705240885416667 2.887945149739583 7.705240885416667 2.9237524414062497 Q 7.760986328125 2.860682779947916 7.858642578125 2.860682779947916 Q 7.93798828125 2.860682779947916 7.971150716145834 2.904017740885416 Q 8.004313151041668 2.947352701822916 8.004313151041668 3.035243326822916 L 8.004313151041668 3.181727701822916 Q 8.004313151041668 3.205327962239583 8.030558268229168 3.206752115885416 Q 8.056803385416668 3.2081762695312497 8.056803385416668 3.2277075195312497 Q 8.056803385416668 3.2496801757812497 8.031575520833334 3.255376790364583 Q 8.012858072916668 3.2594458007812497 7.979899088541667 3.2594458007812497 L 7.944905598958334 3.259852701822916 Q 7.8916015625 3.259852701822916 7.878987630208334 3.2435766601562497 Q 7.873291015625 3.2362524414062497 7.873291015625 3.2258764648437497 Q 7.873291015625 3.2155004882812497 7.881429036458334 3.211431477864583 Q 7.889567057291667 3.207362467447916 7.8995361328125 3.2069555664062497 Q 7.909505208333334 3.206548665364583 7.917643229166667 3.200648600260416 Q 7.92578125 3.1947485351562497 7.92578125 3.181727701822916 L 7.92578125 3.063319498697916 Q 7.92578125 2.987635904947916 7.908284505208334 2.952642415364583 Q 7.888753255208334 2.913173014322916 7.829752604166667 2.913173014322916 Q 7.758544921875 2.913173014322916 7.73291015625 2.951014811197916 Q 7.708902994791667 2.986822102864583 7.708902994791667 3.0653540039062497 L 7.708902994791667 3.181727701822916 Q 7.708902994791667 3.205327962239583 7.735148111979167 3.206752115885416 Q 7.761393229166667 3.2081762695312497 7.761393229166667 3.2277075195312497 Q 7.761393229166667 3.250087076822916 7.736572265625 3.255376790364583 Q 7.718668619791667 3.2594458007812497 7.685709635416667 3.2594458007812497 M 8.223225911458334 3.2594458007812497 L 8.188232421875 3.259852701822916 Q 8.134928385416668 3.259852701822916 8.122314453125 3.2435766601562497 Q 8.116617838541668 3.2362524414062497 8.116617838541668 3.2258764648437497 Q 8.116617838541668 3.2155004882812497 8.124755859375 3.211431477864583 Q 8.132893880208334 3.207362467447916 8.142862955729168 3.2069555664062497 Q 8.15283203125 3.206548665364583 8.160970052083334 3.200648600260416 Q 8.169108072916668 3.1947485351562497 8.169108072916668 3.181727701822916 L 8.169108072916668 2.9493872070312497 Q 8.169108072916668 2.925786946614583 8.139811197916668 2.920904134114583 Q 8.119466145833334 2.9176489257812497 8.115193684895834 2.913783365885416 Q 8.110921223958334 2.909917805989583 8.110921223958334 2.8999487304687497 Q 8.110921223958334 2.889979654947916 8.125162760416668 2.881841634114583 Q 8.149169921875 2.867193196614583 8.185587565104168 2.867193196614583 Q 8.222005208333334 2.867193196614583 8.232381184895834 2.877569173177083 Q 8.242757161458334 2.887945149739583 8.242757161458334 2.9237524414062497 Q 8.298502604166668 2.860682779947916 8.396158854166668 2.860682779947916 Q 8.475504557291668 2.860682779947916 8.5086669921875 2.904017740885416 Q 8.541829427083334 2.947352701822916 8.541829427083334 3.035243326822916 L 8.541829427083334 3.181727701822916 Q 8.541829427083334 3.205327962239583 8.568074544270834 3.206752115885416 Q 8.594319661458334 3.2081762695312497 8.594319661458334 3.2277075195312497 Q 8.594319661458334 3.2496801757812497 8.569091796875 3.255376790364583 Q 8.550374348958334 3.2594458007812497 8.517415364583334 3.2594458007812497 L 8.482421875 3.259852701822916 Q 8.429117838541668 3.259852701822916 8.41650390625 3.2435766601562497 Q 8.410807291666668 3.2362524414062497 8.410807291666668 3.2258764648437497 Q 8.410807291666668 3.2155004882812497 8.4189453125 3.211431477864583 Q 8.427083333333334 3.207362467447916 8.437052408854168 3.2069555664062497 Q 8.447021484375 3.206548665364583 8.455159505208334 3.200648600260416 Q 8.463297526041668 3.1947485351562497 8.463297526041668 3.181727701822916 L 8.463297526041668 3.063319498697916 Q 8.463297526041668 2.987635904947916 8.44580078125 2.952642415364583 Q 8.42626953125 2.913173014322916 8.367268880208334 2.913173014322916 Q 8.296061197916668 2.913173014322916 8.270426432291668 2.951014811197916 Q 8.246419270833334 2.986822102864583 8.246419270833334 3.0653540039062497 L 8.246419270833334 3.181727701822916 Q 8.246419270833334 3.205327962239583 8.272664388020834 3.206752115885416 Q 8.298909505208334 3.2081762695312497 8.298909505208334 3.2277075195312497 Q 8.298909505208334 3.250087076822916 8.274088541666668 3.255376790364583 Q 8.256184895833334 3.2594458007812497 8.223225911458334 3.2594458007812497 M 8.633382161458334 3.068202311197916 Q 8.633382161458334 2.976649576822916 8.690144856770834 2.9194799804687497 Q 8.746907552083334 2.862310384114583 8.834798177083334 2.862310384114583 Q 8.904378255208334 2.862310384114583 8.952189127604166 2.9072729492187497 Q 9 2.952235514322916 9 3.0201879882812497 Q 9 3.0531469726562497 8.947916666666666 3.0531469726562497 L 8.712320963541666 3.0531469726562497 Q 8.713134765625 3.1190649414062497 8.755045572916666 3.1642309570312497 Q 8.796956380208334 3.2093969726562497 8.86083984375 3.2093969726562497 Q 8.903157552083334 3.2093969726562497 8.943033854166666 3.184576009114583 Q 8.964192708333334 3.1715551757812497 8.9700927734375 3.1715551757812497 Q 8.975992838541666 3.1715551757812497 8.9835205078125 3.177455240885416 Q 8.991048177083334 3.183355305989583 8.991048177083334 3.191900227864583 Q 8.991048177083334 3.2142797851562497 8.962361653645834 3.2332006835937497 Q 8.933675130208334 3.2521215820312497 8.899088541666666 3.2612768554687497 Q 8.864501953125 3.2704321289062497 8.838460286458334 3.2704321289062497 Q 8.74609375 3.2704321289062497 8.689737955729166 3.215093587239583 Q 8.633382161458334 3.159755045572916 8.633382161458334 3.068202311197916 M 8.925130208333334 3.0104223632812497 Q 8.92431640625 2.963628743489583 8.900716145833334 2.934331868489583 Q 8.877115885416666 2.905034993489583 8.831746419270834 2.905034993489583 Q 8.786376953125 2.905034993489583 8.752400716145834 2.937587076822916 Q 8.718424479166666 2.9701391601562497 8.716389973958334 3.012049967447916 L 8.811604817708334 3.012049967447916 Q 8.875081380208334 3.012049967447916 8.925130208333334 3.0104223632812497 M 9.402425130208332 3.1801000976562497 Q 9.420735677083332 3.1801000976562497 9.420735677083332 3.1971899414062497 Q 9.420735677083332 3.206548665364583 9.4150390625 3.212652180989583 Q 9.360921223958332 3.2704321289062497 9.259602864583332 3.2704321289062497 Q 9.158284505208332 3.2704321289062497 9.099080403645832 3.2155004882812497 Q 9.039876302083332 3.1605688476562497 9.039876302083332 3.0702368164062497 Q 9.039876302083332 3.011236165364583 9.068562825520832 2.9634252929687497 Q 9.097249348958332 2.915614420572916 9.146687825520832 2.888758951822916 Q 9.196126302083332 2.861903483072916 9.25634765625 2.861903483072916 Q 9.340576171875 2.861903483072916 9.386149088541666 2.9054418945312497 Q 9.41015625 2.9286352539062497 9.41015625 2.959559733072916 Q 9.41015625 2.977870279947916 9.3948974609375 2.990484212239583 Q 9.379638671875 3.0030981445312497 9.358479817708332 3.0030981445312497 Q 9.337320963541666 3.0030981445312497 9.327962239583332 2.9994360351562497 Q 9.325113932291666 2.953456217447916 9.309041341145832 2.928838704427083 Q 9.29296875 2.9042211914062497 9.255126953125 2.9042211914062497 Q 9.193277994791666 2.9042211914062497 9.1580810546875 2.943690592447916 Q 9.122884114583332 2.983159993489583 9.122884114583332 3.049891764322916 Q 9.122884114583332 3.1166235351562497 9.1678466796875 3.165858561197916 Q 9.212809244791666 3.215093587239583 9.281168619791666 3.215093587239583 Q 9.321451822916666 3.215093587239583 9.380045572916666 3.186610514322916 Q 9.392659505208332 3.1801000976562497 9.402425130208332 3.1801000976562497 M 9.5029296875 2.9225317382812497 L 9.478108723958334 2.922938639322916 Q 9.463053385416666 2.922938639322916 9.456136067708334 2.9200903320312497 Q 9.44921875 2.917242024739583 9.44921875 2.908086751302083 Q 9.44921875 2.898931477864583 9.4571533203125 2.8914038085937497 Q 9.465087890625 2.883876139322916 9.475260416666666 2.8798071289062497 Q 9.503336588541666 2.868413899739583 9.508829752604166 2.860479329427083 Q 9.514322916666666 2.852544759114583 9.525309244791666 2.825689290364583 Q 9.552571614583334 2.7585506184895827 9.570882161458334 2.7585506184895827 Q 9.580240885416666 2.7585506184895827 9.5816650390625 2.778692220052083 Q 9.583089192708334 2.798833821614583 9.583292643229166 2.809413248697916 Q 9.58349609375 2.8199926757812497 9.583089192708334 2.840948079427083 Q 9.582682291666666 2.861903483072916 9.582682291666666 2.8700415039062497 L 9.679524739583334 2.870448404947916 Q 9.693766276041666 2.870448404947916 9.703531901041666 2.877569173177083 Q 9.713297526041666 2.8846899414062497 9.713297526041666 2.896490071614583 Q 9.713297526041666 2.908290201822916 9.7037353515625 2.914800618489583 Q 9.694173177083334 2.9213110351562497 9.679931640625 2.9213110351562497 L 9.582682291666666 2.9213110351562497 L 9.582275390625 3.129237467447916 Q 9.582275390625 3.217534993489583 9.626627604166666 3.217534993489583 Q 9.638834635416666 3.217534993489583 9.662841796875 3.2100073242187497 Q 9.686848958333334 3.202479654947916 9.694173177083334 3.202479654947916 Q 9.710856119791666 3.202479654947916 9.710856119791666 3.2216040039062497 Q 9.710856119791666 3.236659342447916 9.671590169270834 3.251714680989583 Q 9.63232421875 3.2667700195312497 9.591023763020834 3.2667700195312497 Q 9.549723307291666 3.2667700195312497 9.526326497395834 3.234624837239583 Q 9.5029296875 3.202479654947916 9.5029296875 3.149989420572916 L 9.5029296875 2.9225317382812497 M 9.823160807291666 2.7487849934895827 Q 9.823160807291666 2.7308813476562497 9.8404541015625 2.7152156575520827 Q 9.857747395833334 2.699549967447916 9.8782958984375 2.699549967447916 Q 9.898844401041666 2.699549967447916 9.918172200520834 2.7121638997395827 Q 9.9375 2.7247778320312497 9.9375 2.7455297851562497 Q 9.9375 2.7662817382812497 9.921223958333334 2.7803198242187497 Q 9.904947916666666 2.7943579101562497 9.88134765625 2.7943579101562497 Q 9.857747395833334 2.7943579101562497 9.8404541015625 2.781337076822916 Q 9.823160807291666 2.768316243489583 9.823160807291666 2.7487849934895827 M 9.908203125 3.2594458007812497 L 9.873209635416666 3.259852701822916 Q 9.819905598958334 3.259852701822916 9.807291666666666 3.2435766601562497 Q 9.801595052083334 3.2362524414062497 9.801595052083334 3.2258764648437497 Q 9.801595052083334 3.2155004882812497 9.809733072916666 3.211431477864583 Q 9.81787109375 3.207362467447916 9.827840169270834 3.2069555664062497 Q 9.837809244791666 3.206548665364583 9.845947265625 3.200648600260416 Q 9.854085286458334 3.1947485351562497 9.854085286458334 3.181727701822916 L 9.854085286458334 2.9628149414062497 Q 9.854085286458334 2.925786946614583 9.8251953125 2.922938639322916 Q 9.822347005208334 2.9225317382812497 9.81787109375 2.922124837239583 Q 9.813395182291666 2.921717936197916 9.811360677083334 2.921514485677083 Q 9.809326171875 2.9213110351562497 9.8062744140625 2.9207006835937497 Q 9.80322265625 2.9200903320312497 9.801798502604166 2.919276529947916 Q 9.800374348958334 2.918462727864583 9.798746744791666 2.917242024739583 Q 9.7958984375 2.9152075195312497 9.7958984375 2.905645345052083 Q 9.7958984375 2.896083170572916 9.80810546875 2.8859106445312497 Q 9.831298828125 2.867193196614583 9.869954427083334 2.867193196614583 Q 9.90576171875 2.867193196614583 9.912068684895834 2.8700415039062497 Q 9.918375651041666 2.872889811197916 9.9228515625 2.8761450195312497 Q 9.931396484375 2.881841634114583 9.931396484375 2.897710774739583 L 9.931396484375 3.181727701822916 Q 9.931396484375 3.205327962239583 9.9576416015625 3.206752115885416 Q 9.98388671875 3.2081762695312497 9.98388671875 3.2277075195312497 Q 9.98388671875 3.250087076822916 9.95947265625 3.255376790364583 Q 9.940755208333334 3.2594458007812497 9.908203125 3.2594458007812497 M 10.16455078125 3.2594458007812497 L 10.129557291666666 3.259852701822916 Q 10.076253255208334 3.259852701822916 10.063639322916666 3.2435766601562497 Q 10.057942708333334 3.2362524414062497 10.057942708333334 3.2258764648437497 Q 10.057942708333334 3.2155004882812497 10.066080729166666 3.211431477864583 Q 10.07421875 3.207362467447916 10.084187825520834 3.2069555664062497 Q 10.094156901041666 3.206548665364583 10.102294921875 3.200648600260416 Q 10.110432942708334 3.1947485351562497 10.110432942708334 3.181727701822916 L 10.110432942708334 2.9493872070312497 Q 10.110432942708334 2.925786946614583 10.081136067708334 2.920904134114583 Q 10.060791015625 2.9176489257812497 10.0565185546875 2.913783365885416 Q 10.05224609375 2.909917805989583 10.05224609375 2.8999487304687497 Q 10.05224609375 2.889979654947916 10.066487630208334 2.881841634114583 Q 10.090494791666666 2.867193196614583 10.126912434895834 2.867193196614583 Q 10.163330078125 2.867193196614583 10.1737060546875 2.877569173177083 Q 10.18408203125 2.887945149739583 10.18408203125 2.9237524414062497 Q 10.239827473958334 2.860682779947916 10.337483723958334 2.860682779947916 Q 10.416829427083334 2.860682779947916 10.449991861979166 2.904017740885416 Q 10.483154296875 2.947352701822916 10.483154296875 3.035243326822916 L 10.483154296875 3.181727701822916 Q 10.483154296875 3.205327962239583 10.5093994140625 3.206752115885416 Q 10.53564453125 3.2081762695312497 10.53564453125 3.2277075195312497 Q 10.53564453125 3.2496801757812497 10.510416666666666 3.255376790364583 Q 10.49169921875 3.2594458007812497 10.458740234375 3.2594458007812497 L 10.423746744791666 3.259852701822916 Q 10.370442708333334 3.259852701822916 10.357828776041666 3.2435766601562497 Q 10.352132161458334 3.2362524414062497 10.352132161458334 3.2258764648437497 Q 10.352132161458334 3.2155004882812497 10.360270182291666 3.211431477864583 Q 10.368408203125 3.207362467447916 10.378377278645834 3.2069555664062497 Q 10.388346354166666 3.206548665364583 10.396484375 3.200648600260416 Q 10.404622395833334 3.1947485351562497 10.404622395833334 3.181727701822916 L 10.404622395833334 3.063319498697916 Q 10.404622395833334 2.987635904947916 10.387125651041666 2.952642415364583 Q 10.367594401041666 2.913173014322916 10.30859375 2.913173014322916 Q 10.237386067708334 2.913173014322916 10.211751302083334 2.951014811197916 Q 10.187744140625 2.986822102864583 10.187744140625 3.0653540039062497 L 10.187744140625 3.181727701822916 Q 10.187744140625 3.205327962239583 10.2139892578125 3.206752115885416 Q 10.240234375 3.2081762695312497 10.240234375 3.2277075195312497 Q 10.240234375 3.250087076822916 10.215413411458334 3.255376790364583 Q 10.197509765625 3.2594458007812497 10.16455078125 3.2594458007812497 M 10.961263020833332 3.006353352864583 Q 10.961263020833332 3.0433813476562497 10.933186848958332 3.0714575195312497 Q 10.878255208333332 3.1263891601562497 10.776529947916666 3.1263891601562497 Q 10.756591796875 3.1263891601562497 10.734212239583332 3.122523600260416 Q 10.711832682291666 3.118658040364583 10.706136067708332 3.1178442382812497 L 10.706136067708332 3.117437337239583 Q 10.675211588541666 3.1434790039062497 10.675211588541666 3.1630102539062497 Q 10.675211588541666 3.180913899739583 10.692708333333332 3.187017415364583 Q 10.717529296875 3.1959692382812497 10.761881510416666 3.196783040364583 Q 10.806233723958332 3.197596842447916 10.8310546875 3.198207194010416 Q 10.855875651041666 3.198817545572916 10.884765625 3.2008520507812497 Q 10.913655598958332 3.202886555989583 10.935628255208332 3.2087866210937497 Q 10.957600911458332 3.214686686197916 10.976725260416666 3.224452311197916 Q 11.015787760416666 3.2447973632812497 11.015787760416666 3.2936254882812497 Q 11.015787760416666 3.3302465820312497 10.996663411458332 3.3583227539062497 Q 10.9775390625 3.3863989257812497 10.945393880208332 3.402674967447916 Q 10.881510416666666 3.435633951822916 10.793212890625 3.435633951822916 Q 10.716715494791666 3.435633951822916 10.658528645833332 3.4144750976562497 Q 10.627197265625 3.403081868489583 10.60888671875 3.3809057617187497 Q 10.590576171875 3.358729654947916 10.590576171875 3.3278051757812497 Q 10.590576171875 3.270025227864583 10.648763020833332 3.2386938476562497 Q 10.63330078125 3.223638509114583 10.6278076171875 3.210210774739583 Q 10.622314453125 3.196783040364583 10.622314453125 3.1788793945312497 Q 10.622314453125 3.160975748697916 10.625569661458332 3.151210123697916 Q 10.628824869791666 3.141444498697916 10.6357421875 3.133306477864583 Q 10.644694010416666 3.1227270507812497 10.669108072916666 3.1044165039062497 Q 10.630859375 3.085292154947916 10.6107177734375 3.061488444010416 Q 10.590576171875 3.037684733072916 10.590576171875 3.0012670898437497 Q 10.590576171875 2.964849446614583 10.607462565104166 2.937993977864583 Q 10.624348958333332 2.911138509114583 10.652018229166666 2.895269368489583 Q 10.708170572916666 2.863124186197916 10.77734375 2.863124186197916 Q 10.796875 2.863124186197916 10.850382486979166 2.8730932617187497 Q 10.903889973958332 2.883062337239583 10.910400390625 2.883062337239583 Q 10.946614583333332 2.883062337239583 10.952718098958332 2.8468481445312497 Q 11.004801432291666 2.8468481445312497 11.004801432291666 2.8883520507812497 Q 11.004801432291666 2.908290201822916 10.9927978515625 2.919886881510416 Q 10.980794270833332 2.931483561197916 10.965128580729166 2.931483561197916 Q 10.949462890625 2.931483561197916 10.931559244791666 2.9298559570312497 Q 10.943359375 2.940028483072916 10.952311197916666 2.9615942382812497 Q 10.961263020833332 2.983159993489583 10.961263020833332 3.006353352864583 M 10.704305013020832 2.9237524414062497 Q 10.673583984375 2.9493872070312497 10.673583984375 2.991298014322916 Q 10.673583984375 3.033208821614583 10.705118815104166 3.060064290364583 Q 10.736653645833332 3.086919759114583 10.7822265625 3.086919759114583 Q 10.827799479166666 3.086919759114583 10.8560791015625 3.061895345052083 Q 10.884358723958332 3.036870930989583 10.884358723958332 2.996587727864583 Q 10.884358723958332 2.956304524739583 10.8536376953125 2.927211100260416 Q 10.822916666666666 2.8981176757812497 10.778971354166666 2.8981176757812497 Q 10.735026041666666 2.8981176757812497 10.704305013020832 2.9237524414062497 M 10.785888671875 3.388026529947916 Q 10.848551432291666 3.388026529947916 10.881103515625 3.3748022460937497 Q 10.913655598958332 3.361577962239583 10.92626953125 3.3442846679687497 Q 10.938883463541666 3.326991373697916 10.938883463541666 3.302984212239583 Q 10.938883463541666 3.252935384114583 10.744384765625 3.252935384114583 Q 10.689453125 3.252935384114583 10.689453125 3.251714680989583 Q 10.658528645833332 3.283046061197916 10.658528645833332 3.311529134114583 Q 10.658528645833332 3.388026529947916 10.785888671875 3.388026529947916 M 11.779541015625 3.223231608072916 Q 11.779541015625 3.241949055989583 11.75634765625 3.250697428385416 Q 11.733154296875 3.2594458007812497 11.705485026041666 3.2594458007812497 L 11.700602213541666 3.2594458007812497 Q 11.647705078125 3.2594458007812497 11.6336669921875 3.255376790364583 Q 11.61962890625 3.251307779947916 11.610677083333332 3.2472387695312497 Q 11.5927734375 3.238286946614583 11.5927734375 3.218348795572916 Q 11.5927734375 3.2093969726562497 11.614542643229166 3.2081762695312497 Q 11.636311848958332 3.2069555664062497 11.636311848958332 3.194341634114583 Q 11.636311848958332 3.1898657226562497 11.628580729166666 3.174810384114583 L 11.628987630208332 3.174810384114583 L 11.584228515625 3.068202311197916 L 11.344563802083332 3.068202311197916 Q 11.301025390625 3.182948404947916 11.301025390625 3.193120930989583 Q 11.301025390625 3.2032934570312497 11.306315104166666 3.204921061197916 L 11.305908203125 3.2045141601562497 Q 11.308756510416666 3.206141764322916 11.319742838541666 3.208990071614583 Q 11.347005208333332 3.2155004882812497 11.347005208333332 3.223231608072916 Q 11.347005208333332 3.2594458007812497 11.255452473958332 3.2594458007812497 Q 11.179361979166666 3.2594458007812497 11.179361979166666 3.223231608072916 Q 11.179361979166666 3.2155004882812497 11.206827799479166 3.207769368489583 Q 11.234293619791666 3.200038248697916 11.245686848958332 3.169520670572916 L 11.410481770833332 2.738612467447916 Q 11.406412760416666 2.727626139322916 11.406412760416666 2.7194881184895827 Q 11.406412760416666 2.6881567382812497 11.470296223958332 2.6881567382812497 Q 11.521565755208332 2.6881567382812497 11.53662109375 2.7272192382812497 L 11.708333333333332 3.1666723632812497 Q 11.722981770833332 3.201665852864583 11.753092447916666 3.206548665364583 Q 11.772216796875 3.2093969726562497 11.77587890625 3.212855631510416 Q 11.779541015625 3.216314290364583 11.779541015625 3.223231608072916 M 11.360432942708332 3.029139811197916 L 11.567952473958332 3.029139811197916 L 11.462158203125 2.738612467447916 L 11.360432942708332 3.029139811197916 M 11.929687499999998 3.2594458007812497 L 11.894694010416666 3.259852701822916 Q 11.841389973958332 3.259852701822916 11.828776041666666 3.2435766601562497 Q 11.823079427083332 3.2362524414062497 11.823079427083332 3.2258764648437497 Q 11.823079427083332 3.2155004882812497 11.831217447916666 3.211431477864583 Q 11.839355468749998 3.207362467447916 11.849324544270832 3.2069555664062497 Q 11.859293619791666 3.206548665364583 11.867431640624998 3.200648600260416 Q 11.875569661458332 3.1947485351562497 11.875569661458332 3.181727701822916 L 11.875569661458332 2.9493872070312497 Q 11.875569661458332 2.9371801757812497 11.866414388020832 2.9310766601562497 Q 11.857259114583332 2.9249731445312497 11.846679687499998 2.924159342447916 Q 11.817382812499998 2.9225317382812497 11.817382812499998 2.905848795572916 Q 11.817382812499998 2.878993326822916 11.871093749999998 2.869634602864583 Q 11.883300781249998 2.867193196614583 11.893880208333332 2.867193196614583 Q 11.928873697916666 2.867193196614583 11.939046223958332 2.877569173177083 Q 11.949218749999998 2.887945149739583 11.949218749999998 2.9237524414062497 Q 12.005371093749998 2.861089680989583 12.101399739583332 2.861089680989583 Q 12.134765624999998 2.861089680989583 12.166300455729166 2.881231282552083 Q 12.197835286458332 2.901372884114583 12.215332031249998 2.928228352864583 Q 12.284505208333332 2.860682779947916 12.369140624999998 2.860682779947916 Q 12.467203776041666 2.860682779947916 12.494059244791666 2.9445043945312497 Q 12.508707682291666 2.990077311197916 12.508707682291666 3.0677954101562497 L 12.508707682291666 3.181727701822916 Q 12.508707682291666 3.205327962239583 12.534952799479166 3.206752115885416 Q 12.561197916666666 3.2081762695312497 12.561197916666666 3.2277075195312497 Q 12.561197916666666 3.250087076822916 12.536783854166666 3.255376790364583 Q 12.518066406249998 3.2594458007812497 12.485514322916666 3.2594458007812497 L 12.450520833333332 3.259852701822916 Q 12.397216796874998 3.259852701822916 12.384602864583332 3.2435766601562497 Q 12.378906249999998 3.2362524414062497 12.378906249999998 3.2258764648437497 Q 12.378906249999998 3.2155004882812497 12.387044270833332 3.211431477864583 Q 12.395182291666666 3.207362467447916 12.405151367187498 3.2069555664062497 Q 12.415120442708332 3.206548665364583 12.423258463541666 3.200648600260416 Q 12.431396484374998 3.1947485351562497 12.431396484374998 3.181727701822916 L 12.431396484374998 3.056402180989583 Q 12.431396484374998 2.963628743489583 12.410644531249998 2.937993977864583 Q 12.391113281249998 2.913173014322916 12.354899088541666 2.913173014322916 Q 12.318684895833332 2.913173014322916 12.292032877604166 2.922735188802083 Q 12.265380859374998 2.9322973632812497 12.248291015624998 2.9524389648437497 Q 12.231201171874998 2.9725805664062497 12.231201171874998 2.999842936197916 L 12.231201171874998 3.181727701822916 Q 12.231201171874998 3.205327962239583 12.257446289062498 3.206752115885416 Q 12.283691406249998 3.2081762695312497 12.283691406249998 3.2277075195312497 Q 12.283691406249998 3.250087076822916 12.259277343749998 3.255376790364583 Q 12.240559895833332 3.2594458007812497 12.208007812499998 3.2594458007812497 L 12.173014322916666 3.259852701822916 Q 12.119710286458332 3.259852701822916 12.107096354166666 3.2435766601562497 Q 12.101399739583332 3.2362524414062497 12.101399739583332 3.2258764648437497 Q 12.101399739583332 3.2155004882812497 12.109537760416666 3.211431477864583 Q 12.117675781249998 3.207362467447916 12.127644856770832 3.2069555664062497 Q 12.137613932291666 3.206548665364583 12.145751953124998 3.200648600260416 Q 12.153889973958332 3.1947485351562497 12.153889973958332 3.181727701822916 L 12.153889973958332 3.0604711914062497 Q 12.153889973958332 2.983973795572916 12.140462239583332 2.955083821614583 Q 12.120930989583332 2.913173014322916 12.073730468749998 2.913173014322916 Q 12.015136718749998 2.913173014322916 11.984008789062498 2.942876790364583 Q 11.952880859374998 2.9725805664062497 11.952880859374998 3.0275122070312497 L 11.952880859374998 3.181727701822916 Q 11.952880859374998 3.205327962239583 11.979125976562498 3.206752115885416 Q 12.005371093749998 3.2081762695312497 12.005371093749998 3.2277075195312497 Q 12.005371093749998 3.250087076822916 11.980957031249998 3.255376790364583 Q 11.962239583333332 3.2594458007812497 11.929687499999998 3.2594458007812497 M 12.600260416666666 3.068202311197916 Q 12.600260416666666 2.976649576822916 12.657023111979166 2.9194799804687497 Q 12.713785807291666 2.862310384114583 12.801676432291666 2.862310384114583 Q 12.871256510416666 2.862310384114583 12.919067382812498 2.9072729492187497 Q 12.966878255208332 2.952235514322916 12.966878255208332 3.0201879882812497 Q 12.966878255208332 3.0531469726562497 12.914794921874998 3.0531469726562497 L 12.679199218749998 3.0531469726562497 Q 12.680013020833332 3.1190649414062497 12.721923828124998 3.1642309570312497 Q 12.763834635416666 3.2093969726562497 12.827718098958332 3.2093969726562497 Q 12.870035807291666 3.2093969726562497 12.909912109374998 3.184576009114583 Q 12.931070963541666 3.1715551757812497 12.936971028645832 3.1715551757812497 Q 12.942871093749998 3.1715551757812497 12.950398763020832 3.177455240885416 Q 12.957926432291666 3.183355305989583 12.957926432291666 3.191900227864583 Q 12.957926432291666 3.2142797851562497 12.929239908854166 3.2332006835937497 Q 12.900553385416666 3.2521215820312497 12.865966796874998 3.2612768554687497 Q 12.831380208333332 3.2704321289062497 12.805338541666666 3.2704321289062497 Q 12.712972005208332 3.2704321289062497 12.656616210937498 3.215093587239583 Q 12.600260416666666 3.159755045572916 12.600260416666666 3.068202311197916 M 12.892008463541666 3.0104223632812497 Q 12.891194661458332 2.963628743489583 12.867594401041666 2.934331868489583 Q 12.843994140624998 2.905034993489583 12.798624674479166 2.905034993489583 Q 12.753255208333332 2.905034993489583 12.719278971354166 2.937587076822916 Q 12.685302734374998 2.9701391601562497 12.683268229166666 3.012049967447916 L 12.778483072916666 3.012049967447916 Q 12.841959635416666 3.012049967447916 12.892008463541666 3.0104223632812497 M 13.135742187499998 3.2594458007812497 L 13.100748697916664 3.259852701822916 Q 13.047444661458332 3.259852701822916 13.034830729166664 3.2435766601562497 Q 13.029134114583332 3.2362524414062497 13.029134114583332 3.2258764648437497 Q 13.029134114583332 3.2155004882812497 13.037272135416664 3.211431477864583 Q 13.045410156249998 3.207362467447916 13.055379231770832 3.2069555664062497 Q 13.065348307291664 3.206548665364583 13.073486328124998 3.200648600260416 Q 13.081624348958332 3.1947485351562497 13.081624348958332 3.181727701822916 L 13.081624348958332 2.980718587239583 Q 13.081624348958332 2.9445043945312497 13.072875976562498 2.9359594726562497 Q 13.064127604166664 2.9274145507812497 13.058227539062498 2.9249731445312497 Q 13.052327473958332 2.9225317382812497 13.039713541666664 2.9188696289062497 Q 13.027099609374998 2.9152075195312497 13.019165039062498 2.9115454101562497 Q 13.011230468749998 2.9078833007812497 13.011230468749998 2.9005590820312497 Q 13.011230468749998 2.868006998697916 13.098714192708332 2.868006998697916 Q 13.135742187499998 2.868006998697916 13.145711263020832 2.880824381510416 Q 13.155680338541664 2.893641764322916 13.155680338541664 2.940028483072916 Q 13.169514973958332 2.905034993489583 13.201456705729164 2.885096842447916 Q 13.233398437499998 2.8651586914062497 13.266967773437498 2.8651586914062497 Q 13.300537109374998 2.8651586914062497 13.322306315104164 2.879603678385416 Q 13.344075520833332 2.894048665364583 13.344075520833332 2.916224772135416 Q 13.344075520833332 2.9384008789062497 13.329833984374998 2.951625162760416 Q 13.315592447916664 2.964849446614583 13.294840494791664 2.964849446614583 Q 13.274088541666664 2.964849446614583 13.259236653645832 2.953863118489583 Q 13.244384765624998 2.942876790364583 13.239908854166664 2.925380045572916 Q 13.229329427083332 2.9237524414062497 13.222412109374998 2.9237524414062497 Q 13.158935546874998 2.9237524414062497 13.158935546874998 3.069829915364583 L 13.158935546874998 3.181727701822916 Q 13.158935546874998 3.205327962239583 13.185180664062498 3.206752115885416 Q 13.211425781249998 3.2081762695312497 13.211425781249998 3.2277075195312497 Q 13.211425781249998 3.250087076822916 13.187011718749998 3.255376790364583 Q 13.168294270833332 3.2594458007812497 13.135742187499998 3.2594458007812497 M 13.43196614583333 2.7487849934895827 Q 13.43196614583333 2.7308813476562497 13.449259440104164 2.7152156575520827 Q 13.466552734374998 2.699549967447916 13.487101236979164 2.699549967447916 Q 13.50764973958333 2.699549967447916 13.526977539062498 2.7121638997395827 Q 13.546305338541664 2.7247778320312497 13.546305338541664 2.7455297851562497 Q 13.546305338541664 2.7662817382812497 13.530029296874998 2.7803198242187497 Q 13.51375325520833 2.7943579101562497 13.490152994791664 2.7943579101562497 Q 13.466552734374998 2.7943579101562497 13.449259440104164 2.781337076822916 Q 13.43196614583333 2.768316243489583 13.43196614583333 2.7487849934895827 M 13.517008463541664 3.2594458007812497 L 13.48201497395833 3.259852701822916 Q 13.428710937499998 3.259852701822916 13.41609700520833 3.2435766601562497 Q 13.410400390624998 3.2362524414062497 13.410400390624998 3.2258764648437497 Q 13.410400390624998 3.2155004882812497 13.41853841145833 3.211431477864583 Q 13.426676432291664 3.207362467447916 13.436645507812498 3.2069555664062497 Q 13.44661458333333 3.206548665364583 13.454752604166664 3.200648600260416 Q 13.462890624999998 3.1947485351562497 13.462890624999998 3.181727701822916 L 13.462890624999998 2.9628149414062497 Q 13.462890624999998 2.925786946614583 13.434000651041664 2.922938639322916 Q 13.431152343749998 2.9225317382812497 13.426676432291664 2.922124837239583 Q 13.42220052083333 2.921717936197916 13.420166015624998 2.921514485677083 Q 13.418131510416664 2.9213110351562497 13.415079752604164 2.9207006835937497 Q 13.412027994791664 2.9200903320312497 13.41060384114583 2.919276529947916 Q 13.409179687499998 2.918462727864583 13.40755208333333 2.917242024739583 Q 13.404703776041664 2.9152075195312497 13.404703776041664 2.905645345052083 Q 13.404703776041664 2.896083170572916 13.416910807291664 2.8859106445312497 Q 13.440104166666664 2.867193196614583 13.478759765624998 2.867193196614583 Q 13.514567057291664 2.867193196614583 13.520874023437498 2.8700415039062497 Q 13.52718098958333 2.872889811197916 13.531656901041664 2.8761450195312497 Q 13.540201822916664 2.881841634114583 13.540201822916664 2.897710774739583 L 13.540201822916664 3.181727701822916 Q 13.540201822916664 3.205327962239583 13.566446940104164 3.206752115885416 Q 13.592692057291664 3.2081762695312497 13.592692057291664 3.2277075195312497 Q 13.592692057291664 3.250087076822916 13.568277994791664 3.255376790364583 Q 13.549560546874998 3.2594458007812497 13.517008463541664 3.2594458007812497 M 14.00813802083333 3.1801000976562497 Q 14.02644856770833 3.1801000976562497 14.02644856770833 3.1971899414062497 Q 14.02644856770833 3.206548665364583 14.020751953124998 3.212652180989583 Q 13.96663411458333 3.2704321289062497 13.86531575520833 3.2704321289062497 Q 13.76399739583333 3.2704321289062497 13.70479329427083 3.2155004882812497 Q 13.64558919270833 3.1605688476562497 13.64558919270833 3.0702368164062497 Q 13.64558919270833 3.011236165364583 13.67427571614583 2.9634252929687497 Q 13.70296223958333 2.915614420572916 13.75240071614583 2.888758951822916 Q 13.80183919270833 2.861903483072916 13.862060546874998 2.861903483072916 Q 13.946289062499998 2.861903483072916 13.991861979166664 2.9054418945312497 Q 14.015869140624998 2.9286352539062497 14.015869140624998 2.959559733072916 Q 14.015869140624998 2.977870279947916 14.000610351562498 2.990484212239583 Q 13.985351562499998 3.0030981445312497 13.96419270833333 3.0030981445312497 Q 13.943033854166664 3.0030981445312497 13.93367513020833 2.9994360351562497 Q 13.930826822916664 2.953456217447916 13.91475423177083 2.928838704427083 Q 13.898681640624998 2.9042211914062497 13.860839843749998 2.9042211914062497 Q 13.798990885416664 2.9042211914062497 13.763793945312498 2.943690592447916 Q 13.72859700520833 2.983159993489583 13.72859700520833 3.049891764322916 Q 13.72859700520833 3.1166235351562497 13.773559570312498 3.165858561197916 Q 13.818522135416664 3.215093587239583 13.886881510416664 3.215093587239583 Q 13.927164713541664 3.215093587239583 13.985758463541664 3.186610514322916 Q 13.99837239583333 3.1801000976562497 14.00813802083333 3.1801000976562497 M 14.114949544270832 2.989466959635416 Q 14.096028645833332 2.9774633789062497 14.096028645833332 2.958135579427083 Q 14.096028645833332 2.938807779947916 14.107014973958332 2.921717936197916 Q 14.118001302083332 2.904628092447916 14.135498046874998 2.8938452148437497 Q 14.152994791666664 2.883062337239583 14.176188151041664 2.875738118489583 Q 14.218505859374998 2.862310384114583 14.267333984374998 2.862310384114583 Q 14.349527994791664 2.862310384114583 14.386759440104164 2.8987280273437497 Q 14.423990885416664 2.935145670572916 14.423990885416664 3.0189672851562497 L 14.423583984374998 3.139003092447916 Q 14.423583984374998 3.1825415039062497 14.434570312499998 3.1935278320312497 Q 14.437418619791664 3.196376139322916 14.452473958333332 3.2008520507812497 Q 14.493977864583332 3.213872884114583 14.493977864583332 3.220790201822916 Q 14.493977864583332 3.263514811197916 14.406494140624998 3.263514811197916 Q 14.373535156249998 3.263514811197916 14.363566080729164 3.248866373697916 Q 14.353597005208332 3.234217936197916 14.352783203124998 3.195562337239583 Q 14.334472656249998 3.228521321614583 14.297037760416664 3.248866373697916 Q 14.259602864583332 3.2692114257812497 14.216878255208332 3.2692114257812497 Q 14.174153645833332 3.2692114257812497 14.144449869791664 3.2582250976562497 Q 14.114746093749998 3.2472387695312497 14.096232096354164 3.222621256510416 Q 14.077718098958332 3.198003743489583 14.077718098958332 3.169520670572916 Q 14.077718098958332 3.1410375976562497 14.084228515624998 3.123744303385416 Q 14.090738932291664 3.106451009114583 14.100504557291664 3.0946508789062497 Q 14.110270182291664 3.082850748697916 14.127156575520832 3.073492024739583 Q 14.144042968749998 3.0641333007812497 14.158691406249998 3.0586401367187497 Q 14.173339843749998 3.0531469726562497 14.196533203124998 3.048671061197916 Q 14.230712890624998 3.0421606445312497 14.253906249999998 3.039515787760416 Q 14.277099609374998 3.036870930989583 14.277913411458332 3.036464029947916 Q 14.280354817708332 3.0360571289062497 14.305786132812498 3.033412272135416 Q 14.331217447916664 3.030767415364583 14.345865885416664 3.0226293945312497 Q 14.345865885416664 2.945318196614583 14.325113932291664 2.921717936197916 Q 14.306803385416664 2.901372884114583 14.264892578124998 2.901372884114583 Q 14.222981770833332 2.901372884114583 14.202026367187498 2.922735188802083 Q 14.181070963541664 2.944097493489583 14.181070963541664 2.990484212239583 L 14.181477864583332 2.9994360351562497 Q 14.164388020833332 3.001470540364583 14.149129231770832 3.001470540364583 Q 14.133870442708332 3.001470540364583 14.114949544270832 2.989466959635416 M 14.345865885416664 3.0592504882812497 Q 14.318196614583332 3.069423014322916 14.283406575520832 3.0732885742187497 Q 14.248616536458332 3.077154134114583 14.228678385416664 3.0824438476562497 Q 14.208740234374998 3.087733561197916 14.195312499999998 3.095464680989583 Q 14.164388020833332 3.113368326822916 14.164388020833332 3.1569067382812497 Q 14.164388020833332 3.226893717447916 14.245768229166664 3.226893717447916 Q 14.316162109374998 3.226893717447916 14.334879557291664 3.159755045572916 Q 14.345865885416664 3.1215063476562497 14.345865885416664 3.0592504882812497 M 14.570678710937498 3.246424967447916 Q 14.553385416666666 3.233404134114583 14.553385416666666 3.212855631510416 Q 14.553385416666666 3.1923071289062497 14.572102864583332 3.178472493489583 Q 14.590820312499998 3.164637858072916 14.609944661458332 3.164637858072916 Q 14.629069010416666 3.164637858072916 14.648396809895832 3.177251790364583 Q 14.667724609374998 3.1898657226562497 14.667724609374998 3.207362467447916 Q 14.667724609374998 3.243983561197916 14.630696614583332 3.256190592447916 Q 14.621337890624998 3.2594458007812497 14.604654947916666 3.2594458007812497 Q 14.587972005208332 3.2594458007812497 14.570678710937498 3.246424967447916" fill="#b7b7a5" fill-rule="nonzero"></path></g><g clip-path="url(#SvgjsClipPath1003)"><g clip-path="url(#SvgjsClipPath10017e93d65b-1321-4ad4-bc26-8c817e95cf8a)"><path d=" M 17.58947737941308 -0.07954489760458539 L 19.977520638697403 -0.07954489760458539 L 17.489947556159326 2.2181593554381562 L 15.101904296875 2.2181593554381562 Z" fill="#ba8437" transform="matrix(1,0,0,1,0,0)" fill-rule="nonzero"></path></g><g clip-path="url(#SvgjsClipPath10017e93d65b-1321-4ad4-bc26-8c817e95cf8a)"><path d=" M 19.046558125245063 1.0412864453430934 L 21.434601384529387 1.0412864453430934 L 18.947028301991306 3.3389906983858353 L 16.558985042706983 3.3389906983858353 Z" fill="#cf9645" transform="matrix(1,0,0,1,0,0)" fill-rule="nonzero"></path></g></g></g><defs><clipPath id="SvgjsClipPath1003"><path d=" M 15.101904296875 -0.07954489760458539 h 6.3326970876543855 v 3.4185355959904205 h -6.3326970876543855 Z"></path></clipPath><clipPath id="SvgjsClipPath10017e93d65b-1321-4ad4-bc26-8c817e95cf8a"><path d=" M 15.101904296875 -0.07954489760458539 L 21.434601384529387 -0.07954489760458539 L 21.434601384529387 3.3389906983858353 L 15.101904296875 3.3389906983858353 Z"></path></clipPath></defs></svg>